<?xml version="1.0" encoding="utf-8"?>
<!-- Generator: Adobe Illustrator 18.0.0, SVG Export Plug-In . SVG Version: 6.00 Build 0)  -->
<!DOCTYPE svg PUBLIC "-//W3C//DTD SVG 1.1//EN" "http://www.w3.org/Graphics/SVG/1.1/DTD/svg11.dtd">
<svg version="1.1" xmlns="http://www.w3.org/2000/svg" xmlns:xlink="http://www.w3.org/1999/xlink" x="0px" y="0px"
	 viewBox="-440 986 1200 300" enable-background="new -440 986 1200 300" xml:space="preserve">
<symbol  id="New_Symbol" viewBox="-62.2 -54.4 124.4 108.8">
	<path fill="#488FCC" d="M-32.6-52.4L-61.6-2c-0.7,1.2-0.7,2.8,0,4l29.1,50.4c0.7,1.2,2,2,3.5,2h58.2c1.4,0,2.7-0.8,3.5-2L61.6,2
		c0.7-1.2,0.7-2.8,0-4L32.6-52.4c-0.7-1.2-2-2-3.5-2h-58.2C-30.5-54.4-31.8-53.6-32.6-52.4z"/>
</symbol>
<symbol  id="New_Symbol_1" viewBox="-62.2 -54.4 124.4 108.8">
	<path fill="#4B2C86" d="M-32.6-52.4L-61.6-2c-0.7,1.2-0.7,2.8,0,4l29.1,50.4c0.7,1.2,2,2,3.5,2h58.2c1.4,0,2.7-0.8,3.5-2L61.6,2
		c0.7-1.2,0.7-2.8,0-4L32.6-52.4c-0.7-1.2-2-2-3.5-2h-58.2C-30.5-54.4-31.8-53.6-32.6-52.4z"/>
</symbol>
<g id="Layer_1">
</g>
<g id="Layer_2">
	<g>
		
			<use xlink:href="#New_Symbol_1"  width="124.4" height="108.8" x="-62.2" y="-54.4" transform="matrix(1 0 0 -1 -472.6398 972.2758)" overflow="visible"/>
		
			<use xlink:href="#New_Symbol_1"  width="124.4" height="108.8" x="-62.2" y="-54.4" transform="matrix(1 0 0 -1 -453.342 1005.472)" overflow="visible"/>
		
			<use xlink:href="#New_Symbol_1"  width="124.4" height="108.8" x="-62.2" y="-54.4" transform="matrix(1 0 0 -1 -399.0366 1052.1779)" overflow="visible"/>
		
			<use xlink:href="#New_Symbol_1"  width="124.4" height="108.8" x="-62.2" y="-54.4" transform="matrix(1 0 0 -1 -420.4701 1171.5317)" overflow="visible" opacity="0.7814"/>
		
			<use xlink:href="#New_Symbol_1"  width="124.4" height="108.8" x="-62.2" y="-54.4" transform="matrix(1 0 0 -1 -31.293 957.5593)" overflow="visible" opacity="0.1925"/>
		
			<use xlink:href="#New_Symbol_1"  width="124.4" height="108.8" x="-62.2" y="-54.4" transform="matrix(1.1971 0 0 -1.1971 184.7562 1157.0344)" overflow="visible" opacity="0.9046"/>
		
			<use xlink:href="#New_Symbol_1"  width="124.4" height="108.8" x="-62.2" y="-54.4" transform="matrix(1 0 0 -1 275.8532 1254.9392)" overflow="visible" opacity="0.3601"/>
		
			<use xlink:href="#New_Symbol_1"  width="124.4" height="108.8" x="-62.2" y="-54.4" transform="matrix(1 0 0 -1 588.1997 1328.3856)" overflow="visible"/>
		
			<use xlink:href="#New_Symbol_1"  width="124.4" height="108.8" x="-62.2" y="-54.4" transform="matrix(1 0 0 -1 571.1007 1066.3879)" overflow="visible"/>
		
			<use xlink:href="#New_Symbol_1"  width="124.4" height="108.8" x="-62.2" y="-54.4" transform="matrix(1.0121 0 0 -1.0121 -46.0304 1039.6935)" overflow="visible" opacity="0.7104"/>
		
			<use xlink:href="#New_Symbol_1"  width="124.4" height="108.8" x="-62.2" y="-54.4" transform="matrix(1 0 0 -1 584.7949 1013.1024)" overflow="visible" opacity="0.96"/>
		
			<use xlink:href="#New_Symbol_1"  width="124.4" height="108.8" x="-62.2" y="-54.4" transform="matrix(1 0 0 -1 745.7529 1072.8373)" overflow="visible"/>
		
			<use xlink:href="#New_Symbol_1"  width="124.4" height="108.8" x="-62.2" y="-54.4" transform="matrix(2.4413 0 0 -2.4413 291.7193 995.6763)" overflow="visible" opacity="0.923"/>
		
			<use xlink:href="#New_Symbol_1"  width="124.4" height="108.8" x="-62.2" y="-54.4" transform="matrix(1 0 0 -1 -281.6526 961.8571)" overflow="visible" opacity="0.6407"/>
		
			<use xlink:href="#New_Symbol_1"  width="124.4" height="108.8" x="-62.2" y="-54.4" transform="matrix(1.1928 0 0 -1.1928 -285.2069 1217.8716)" overflow="visible" opacity="0.7594"/>
		
			<use xlink:href="#New_Symbol_1"  width="124.4" height="108.8" x="-62.2" y="-54.4" transform="matrix(1 0 0 -1 -406.8983 975.0645)" overflow="visible" opacity="0.8353"/>
		
			<use xlink:href="#New_Symbol_1"  width="124.4" height="108.8" x="-62.2" y="-54.4" transform="matrix(1 0 0 -1 -125.8533 1105.2898)" overflow="visible" opacity="0.2622"/>
		
			<use xlink:href="#New_Symbol_1"  width="124.4" height="108.8" x="-62.2" y="-54.4" transform="matrix(1 0 0 -1 -35.8675 1288.7084)" overflow="visible" opacity="0.7329"/>
		
			<use xlink:href="#New_Symbol_1"  width="124.4" height="108.8" x="-62.2" y="-54.4" transform="matrix(1 0 0 -1 312.0743 1224.896)" overflow="visible" opacity="0.2643"/>
		
			<use xlink:href="#New_Symbol_1"  width="124.4" height="108.8" x="-62.2" y="-54.4" transform="matrix(1 0 0 -1 822.1015 1240.2295)" overflow="visible"/>
		
			<use xlink:href="#New_Symbol_1"  width="124.4" height="108.8" x="-62.2" y="-54.4" transform="matrix(1 0 0 -1 760.2482 1312.6836)" overflow="visible"/>
		
			<use xlink:href="#New_Symbol_1"  width="124.4" height="108.8" x="-62.2" y="-54.4" transform="matrix(1.0716 0 0 -1.0716 -51.2854 1128.0771)" overflow="visible" opacity="0.7103"/>
		
			<use xlink:href="#New_Symbol_1"  width="124.4" height="108.8" x="-62.2" y="-54.4" transform="matrix(1 0 0 -1 -294.7809 997.0568)" overflow="visible" opacity="0.4913"/>
		
			<use xlink:href="#New_Symbol_1"  width="124.4" height="108.8" x="-62.2" y="-54.4" transform="matrix(1 0 0 -1 -477.2363 1087.7773)" overflow="visible"/>
		
			<use xlink:href="#New_Symbol_1"  width="124.4" height="108.8" x="-62.2" y="-54.4" transform="matrix(1 0 0 -1 545.5071 1112.6268)" overflow="visible"/>
		
			<use xlink:href="#New_Symbol_1"  width="124.4" height="108.8" x="-62.2" y="-54.4" transform="matrix(1 0 0 -1 87.6928 1188.4241)" overflow="visible" opacity="0.4265"/>
		
			<use xlink:href="#New_Symbol_1"  width="124.4" height="108.8" x="-62.2" y="-54.4" transform="matrix(1.2546 0 0 -1.2546 232.3941 1002.5838)" overflow="visible" opacity="0.7697"/>
		
			<use xlink:href="#New_Symbol_1"  width="124.4" height="108.8" x="-62.2" y="-54.4" transform="matrix(1 0 0 -1 480.8917 1166.285)" overflow="visible" opacity="0.2091"/>
		
			<use xlink:href="#New_Symbol_1"  width="124.4" height="108.8" x="-62.2" y="-54.4" transform="matrix(1 0 0 -1 134.3942 1082.5677)" overflow="visible" opacity="0.7091"/>
		
			<use xlink:href="#New_Symbol_1"  width="124.4" height="108.8" x="-62.2" y="-54.4" transform="matrix(1.1185 0 0 -1.1185 -2.1815 1117.0197)" overflow="visible" opacity="0.3851"/>
		
			<use xlink:href="#New_Symbol"  width="124.4" height="108.8" x="-62.2" y="-54.4" transform="matrix(1 0 0 -1 786.2071 1103.9404)" overflow="visible" opacity="0.5494"/>
		
			<use xlink:href="#New_Symbol"  width="124.4" height="108.8" x="-62.2" y="-54.4" transform="matrix(1.013 0 0 -1.013 361.695 1097.756)" overflow="visible" opacity="0.1535"/>
		
			<use xlink:href="#New_Symbol"  width="124.4" height="108.8" x="-62.2" y="-54.4" transform="matrix(1 0 0 -1 175.7437 933.7366)" overflow="visible" opacity="0.9602"/>
		
			<use xlink:href="#New_Symbol"  width="124.4" height="108.8" x="-62.2" y="-54.4" transform="matrix(1 0 0 -1 -238.4014 938.4456)" overflow="visible" opacity="0.3472"/>
		
			<use xlink:href="#New_Symbol"  width="124.4" height="108.8" x="-62.2" y="-54.4" transform="matrix(1.5131 0 0 -1.5131 -331.0912 1054.5265)" overflow="visible"/>
		
			<use xlink:href="#New_Symbol"  width="124.4" height="108.8" x="-62.2" y="-54.4" transform="matrix(1 0 0 -1 -386.7504 1292.1472)" overflow="visible" opacity="0.8319"/>
		
			<use xlink:href="#New_Symbol"  width="124.4" height="108.8" x="-62.2" y="-54.4" transform="matrix(1.2056 0 0 -1.2056 -356.6839 1184.7529)" overflow="visible" opacity="0.6984"/>
		
			<use xlink:href="#New_Symbol"  width="124.4" height="108.8" x="-62.2" y="-54.4" transform="matrix(1.3985 0 0 -1.3985 -301.6099 1154.2322)" overflow="visible" opacity="0.2798"/>
		
			<use xlink:href="#New_Symbol"  width="124.4" height="108.8" x="-62.2" y="-54.4" transform="matrix(1 0 0 -1 -195.8033 1333.1658)" overflow="visible" opacity="0.5669"/>
		
			<use xlink:href="#New_Symbol"  width="124.4" height="108.8" x="-62.2" y="-54.4" transform="matrix(1 0 0 -1 -440.637 1305.9894)" overflow="visible" opacity="0.5723"/>
		
			<use xlink:href="#New_Symbol"  width="124.4" height="108.8" x="-62.2" y="-54.4" transform="matrix(1 0 0 -1 35.465 1272.6243)" overflow="visible" opacity="0.6897"/>
		
			<use xlink:href="#New_Symbol"  width="124.4" height="108.8" x="-62.2" y="-54.4" transform="matrix(1.1436 0 0 -1.1436 404.0473 1251.3661)" overflow="visible" opacity="0.1811"/>
		
			<use xlink:href="#New_Symbol"  width="124.4" height="108.8" x="-62.2" y="-54.4" transform="matrix(1.0418 0 0 -1.0418 254.5258 1110.2756)" overflow="visible"/>
		
			<use xlink:href="#New_Symbol"  width="124.4" height="108.8" x="-62.2" y="-54.4" transform="matrix(1.037 0 0 -1.037 451.5922 971.5275)" overflow="visible" opacity="0.4073"/>
		
			<use xlink:href="#New_Symbol"  width="124.4" height="108.8" x="-62.2" y="-54.4" transform="matrix(1.185 0 0 -1.185 419.3671 1041.416)" overflow="visible" opacity="0.237"/>
		
			<use xlink:href="#New_Symbol"  width="124.4" height="108.8" x="-62.2" y="-54.4" transform="matrix(1.0962 0 0 -1.0962 320.8284 1128.33)" overflow="visible"/>
		
			<use xlink:href="#New_Symbol"  width="124.4" height="108.8" x="-62.2" y="-54.4" transform="matrix(1 0 0 -1 352.0329 962.9585)" overflow="visible" opacity="0.2966"/>
		
			<use xlink:href="#New_Symbol"  width="124.4" height="108.8" x="-62.2" y="-54.4" transform="matrix(1.986 0 0 -1.986 622.8032 1122.4272)" overflow="visible" opacity="0.4239"/>
		
			<use xlink:href="#New_Symbol"  width="124.4" height="108.8" x="-62.2" y="-54.4" transform="matrix(1.2122 0 0 -1.2122 688.8113 1083.6373)" overflow="visible" opacity="0.6044"/>
		
			<use xlink:href="#New_Symbol"  width="124.4" height="108.8" x="-62.2" y="-54.4" transform="matrix(1.0307 0 0 -1.0307 679.5696 1252.4305)" overflow="visible" opacity="0.4336"/>
		
			<use xlink:href="#New_Symbol"  width="124.4" height="108.8" x="-62.2" y="-54.4" transform="matrix(1.2497 0 0 -1.2497 686.8033 1027.0599)" overflow="visible" opacity="0.9283"/>
		
			<use xlink:href="#New_Symbol"  width="124.4" height="108.8" x="-62.2" y="-54.4" transform="matrix(1.031 0 0 -1.031 779.6704 1030.0377)" overflow="visible" opacity="0.3061"/>
		
			<use xlink:href="#New_Symbol"  width="124.4" height="108.8" x="-62.2" y="-54.4" transform="matrix(1.0818 0 0 -1.0818 761.0128 985.8251)" overflow="visible" opacity="0.4648"/>
		
			<use xlink:href="#New_Symbol"  width="124.4" height="108.8" x="-62.2" y="-54.4" transform="matrix(1.3213 0 0 -1.3213 539.6187 1174.7509)" overflow="visible" opacity="0.5059"/>
		
			<use xlink:href="#New_Symbol"  width="124.4" height="108.8" x="-62.2" y="-54.4" transform="matrix(1 0 0 -1 421.5061 936.9395)" overflow="visible" opacity="0.3335"/>
		
			<use xlink:href="#New_Symbol"  width="124.4" height="108.8" x="-62.2" y="-54.4" transform="matrix(1.0231 0 0 -1.0231 214.4572 1294.064)" overflow="visible" opacity="0.4164"/>
		
			<use xlink:href="#New_Symbol"  width="124.4" height="108.8" x="-62.2" y="-54.4" transform="matrix(1.3571 0 0 -1.3571 -121.5477 1054.9274)" overflow="visible" opacity="0.3843"/>
		
			<use xlink:href="#New_Symbol"  width="124.4" height="108.8" x="-62.2" y="-54.4" transform="matrix(1.2383 0 0 -1.2383 -151.746 991.663)" overflow="visible" opacity="0.3285"/>
		
			<use xlink:href="#New_Symbol"  width="124.4" height="108.8" x="-62.2" y="-54.4" transform="matrix(1.2371 0 0 -1.2371 -257.4339 1110.0492)" overflow="visible" opacity="0.5145"/>
		
			<use xlink:href="#New_Symbol"  width="124.4" height="108.8" x="-62.2" y="-54.4" transform="matrix(1.0858 0 0 -1.0858 -204.9887 979.576)" overflow="visible" opacity="0.7119"/>
		
			<use xlink:href="#New_Symbol"  width="124.4" height="108.8" x="-62.2" y="-54.4" transform="matrix(1.1157 0 0 -1.1157 393.3993 1309.7147)" overflow="visible" opacity="0.3177"/>
		
			<use xlink:href="#New_Symbol"  width="124.4" height="108.8" x="-62.2" y="-54.4" transform="matrix(1.1468 0 0 -1.1468 -77.651 986.4479)" overflow="visible" opacity="0.5193"/>
		
			<use xlink:href="#New_Symbol"  width="124.4" height="108.8" x="-62.2" y="-54.4" transform="matrix(1 0 0 -1 83.6295 998.0558)" overflow="visible" opacity="0.6995"/>
		
			<use xlink:href="#New_Symbol"  width="124.4" height="108.8" x="-62.2" y="-54.4" transform="matrix(1 0 0 -1 161.43 1299.6503)" overflow="visible" opacity="0.2456"/>
		
			<use xlink:href="#New_Symbol"  width="124.4" height="108.8" x="-62.2" y="-54.4" transform="matrix(1 0 0 -1 221.6851 949.8925)" overflow="visible" opacity="0.6023"/>
		
			<use xlink:href="#New_Symbol"  width="124.4" height="108.8" x="-62.2" y="-54.4" transform="matrix(1 0 0 -1 78.5165 1302.7114)" overflow="visible" opacity="0.5591"/>
		
			<use xlink:href="#New_Symbol"  width="124.4" height="108.8" x="-62.2" y="-54.4" transform="matrix(1 0 0 -1 -485.1887 1233.41)" overflow="visible" opacity="0.8687"/>
		
			<use xlink:href="#New_Symbol"  width="124.4" height="108.8" x="-62.2" y="-54.4" transform="matrix(1 0 0 -1 13.8075 995.9022)" overflow="visible"/>
		
			<use xlink:href="#New_Symbol"  width="124.4" height="108.8" x="-62.2" y="-54.4" transform="matrix(1.4213 0 0 -1.4213 -134.1615 1268.3634)" overflow="visible" opacity="0.4566"/>
		
			<use xlink:href="#New_Symbol"  width="124.4" height="108.8" x="-62.2" y="-54.4" transform="matrix(1.1769 0 0 -1.1769 331.3195 1292.7195)" overflow="visible" opacity="0.6136"/>
		
			<use xlink:href="#New_Symbol"  width="124.4" height="108.8" x="-62.2" y="-54.4" transform="matrix(1.385 0 0 -1.385 -66.7318 1179.9596)" overflow="visible" opacity="0.7529"/>
		
			<use xlink:href="#New_Symbol"  width="124.4" height="108.8" x="-62.2" y="-54.4" transform="matrix(1 0 0 -1 142.057 1019.7054)" overflow="visible" opacity="0.6131"/>
		
			<use xlink:href="#New_Symbol_1"  width="124.4" height="108.8" x="-62.2" y="-54.4" transform="matrix(1 0 0 -1 502.7267 1203.2461)" overflow="visible" opacity="0.5208"/>
		
			<use xlink:href="#New_Symbol_1"  width="124.4" height="108.8" x="-62.2" y="-54.4" transform="matrix(1.04 0 0 -1.04 57.8945 1138.3004)" overflow="visible" opacity="0.4569"/>
		
			<use xlink:href="#New_Symbol_1"  width="124.4" height="108.8" x="-62.2" y="-54.4" transform="matrix(1 0 0 -1 79.6812 1045.3948)" overflow="visible" opacity="0.5143"/>
		
			<use xlink:href="#New_Symbol_1"  width="124.4" height="108.8" x="-62.2" y="-54.4" transform="matrix(2.3814 0 0 -2.3814 309.0851 1066.1472)" overflow="visible" opacity="0.4404"/>
		
			<use xlink:href="#New_Symbol_1"  width="124.4" height="108.8" x="-62.2" y="-54.4" transform="matrix(1.2574 0 0 -1.2574 405.7114 998.584)" overflow="visible" opacity="0.414"/>
		
			<use xlink:href="#New_Symbol_1"  width="124.4" height="108.8" x="-62.2" y="-54.4" transform="matrix(1 0 0 -1 485.7732 1117.9189)" overflow="visible" opacity="0.6552"/>
		
			<use xlink:href="#New_Symbol_1"  width="124.4" height="108.8" x="-62.2" y="-54.4" transform="matrix(1 0 0 -1 398.9462 1206.2469)" overflow="visible" opacity="0.5996"/>
		
			<use xlink:href="#New_Symbol_1"  width="124.4" height="108.8" x="-62.2" y="-54.4" transform="matrix(1 0 0 -1 708.5413 1180.422)" overflow="visible"/>
		
			<use xlink:href="#New_Symbol_1"  width="124.4" height="108.8" x="-62.2" y="-54.4" transform="matrix(1.0495 0 0 -1.0495 36.3276 1172.5129)" overflow="visible" opacity="0.4125"/>
		
			<use xlink:href="#New_Symbol_1"  width="124.4" height="108.8" x="-62.2" y="-54.4" transform="matrix(1.1871 0 0 -1.1871 273.6613 936.3077)" overflow="visible" opacity="0.7749"/>
		
			<use xlink:href="#New_Symbol_1"  width="124.4" height="108.8" x="-62.2" y="-54.4" transform="matrix(1 0 0 -1 87.0316 961.8214)" overflow="visible" opacity="0.3401"/>
		
			<use xlink:href="#New_Symbol_1"  width="124.4" height="108.8" x="-62.2" y="-54.4" transform="matrix(1 0 0 -1 -255.2759 1055.0015)" overflow="visible" opacity="0.3524"/>
		
			<use xlink:href="#New_Symbol_1"  width="124.4" height="108.8" x="-62.2" y="-54.4" transform="matrix(1.0461 0 0 -1.0461 57.2087 1091.8248)" overflow="visible" opacity="0.7746"/>
		
			<use xlink:href="#New_Symbol_1"  width="124.4" height="108.8" x="-62.2" y="-54.4" transform="matrix(1.1133 0 0 -1.1133 223.2482 1065.561)" overflow="visible" opacity="0.6327"/>
		
			<use xlink:href="#New_Symbol_1"  width="124.4" height="108.8" x="-62.2" y="-54.4" transform="matrix(1 0 0 -1 133.5181 1253.6765)" overflow="visible" opacity="0.4266"/>
		
			<use xlink:href="#New_Symbol_1"  width="124.4" height="108.8" x="-62.2" y="-54.4" transform="matrix(1.0089 0 0 -1.0089 -324.9125 1301.7727)" overflow="visible" opacity="0.5695"/>
		
			<use xlink:href="#New_Symbol_1"  width="124.4" height="108.8" x="-62.2" y="-54.4" transform="matrix(1 0 0 -1 524.9211 971.1273)" overflow="visible" opacity="0.8029"/>
		
			<use xlink:href="#New_Symbol_1"  width="124.4" height="108.8" x="-62.2" y="-54.4" transform="matrix(1 0 0 -1 753.8668 1223.2428)" overflow="visible" opacity="0.477"/>
		
			<use xlink:href="#New_Symbol_1"  width="124.4" height="108.8" x="-62.2" y="-54.4" transform="matrix(1 0 0 -1 613.0911 938.061)" overflow="visible"/>
		
			<use xlink:href="#New_Symbol_1"  width="124.4" height="108.8" x="-62.2" y="-54.4" transform="matrix(1 0 0 -1 463.4796 1285.688)" overflow="visible"/>
		
			<use xlink:href="#New_Symbol"  width="124.4" height="108.8" x="-62.2" y="-54.4" transform="matrix(1.2089 0 0 -1.2089 569.0283 1274.8136)" overflow="visible" opacity="0.9241"/>
		
			<use xlink:href="#New_Symbol"  width="124.4" height="108.8" x="-62.2" y="-54.4" transform="matrix(1.5546 0 0 -1.5546 640.6174 1183.3536)" overflow="visible" opacity="0.6925"/>
		
			<use xlink:href="#New_Symbol"  width="124.4" height="108.8" x="-62.2" y="-54.4" transform="matrix(1.1416 0 0 -1.1416 364.3963 1177.5592)" overflow="visible" opacity="0.4532"/>
		
			<use xlink:href="#New_Symbol"  width="124.4" height="108.8" x="-62.2" y="-54.4" transform="matrix(1.2028 0 0 -1.2028 250.637 1215.5179)" overflow="visible" opacity="0.5237"/>
		
			<use xlink:href="#New_Symbol"  width="124.4" height="108.8" x="-62.2" y="-54.4" transform="matrix(1.8394 0 0 -1.8394 -120.9838 1213.0894)" overflow="visible" opacity="0.6919"/>
		
			<use xlink:href="#New_Symbol"  width="124.4" height="108.8" x="-62.2" y="-54.4" transform="matrix(1.0264 0 0 -1.0264 -214.6733 1294.5663)" overflow="visible" opacity="0.5852"/>
		
			<use xlink:href="#New_Symbol"  width="124.4" height="108.8" x="-62.2" y="-54.4" transform="matrix(1 0 0 -1 150.0526 1192.5173)" overflow="visible" opacity="0.5103"/>
		
			<use xlink:href="#New_Symbol"  width="124.4" height="108.8" x="-62.2" y="-54.4" transform="matrix(1.1508 0 0 -1.1508 422.2118 1104.3502)" overflow="visible" opacity="0.3882"/>
		
			<use xlink:href="#New_Symbol"  width="124.4" height="108.8" x="-62.2" y="-54.4" transform="matrix(1.0523 0 0 -1.0523 -9.6933 1226.1895)" overflow="visible" opacity="0.9748"/>
		
			<use xlink:href="#New_Symbol"  width="124.4" height="108.8" x="-62.2" y="-54.4" transform="matrix(1 0 0 -1 105.2981 1128.4326)" overflow="visible" opacity="0.2365"/>
		
			<use xlink:href="#New_Symbol_1"  width="124.4" height="108.8" x="-62.2" y="-54.4" transform="matrix(1 0 0 -1 -154.2437 1158.5498)" overflow="visible" opacity="0.2906"/>
		
			<use xlink:href="#New_Symbol_1"  width="124.4" height="108.8" x="-62.2" y="-54.4" transform="matrix(1 0 0 -1 -182.1714 1218.7402)" overflow="visible" opacity="0.1487"/>
		
			<use xlink:href="#New_Symbol_1"  width="124.4" height="108.8" x="-62.2" y="-54.4" transform="matrix(1.0254 0 0 -1.0254 -202.2343 1114.5629)" overflow="visible" opacity="0.3385"/>
		
			<use xlink:href="#New_Symbol_1"  width="124.4" height="108.8" x="-62.2" y="-54.4" transform="matrix(1.0243 0 0 -1.0243 -218.0287 1151.1835)" overflow="visible" opacity="0.1969"/>
		
			<use xlink:href="#New_Symbol_1"  width="124.4" height="108.8" x="-62.2" y="-54.4" transform="matrix(1.0233 0 0 -1.0233 -229.3557 1193.8728)" overflow="visible" opacity="0.1298"/>
		
			<use xlink:href="#New_Symbol_1"  width="124.4" height="108.8" x="-62.2" y="-54.4" transform="matrix(1.0224 0 0 -1.0224 -187.9314 1050.4779)" overflow="visible" opacity="0.478"/>
		
			<use xlink:href="#New_Symbol_1"  width="124.4" height="108.8" x="-62.2" y="-54.4" transform="matrix(1.0199 0 0 -1.0199 -215.5708 1018.449)" overflow="visible" opacity="0.466"/>
		
			<use xlink:href="#New_Symbol_1"  width="124.4" height="108.8" x="-62.2" y="-54.4" transform="matrix(1 0 0 -1 629.1563 1278.58)" overflow="visible" opacity="0.3251"/>
		
			<use xlink:href="#New_Symbol_1"  width="124.4" height="108.8" x="-62.2" y="-54.4" transform="matrix(1 0 0 -1 524.1842 1070.4471)" overflow="visible" opacity="0.4386"/>
	</g>
</g>
</svg>
