<?xml version="1.0" encoding="utf-8"?>
<!-- Generator: Adobe Illustrator 18.0.0, SVG Export Plug-In . SVG Version: 6.00 Build 0)  -->
<!DOCTYPE svg PUBLIC "-//W3C//DTD SVG 1.1//EN" "http://www.w3.org/Graphics/SVG/1.1/DTD/svg11.dtd">
<svg version="1.1" id="background-hexa" xmlns="http://www.w3.org/2000/svg" xmlns:xlink="http://www.w3.org/1999/xlink" x="0px" y="0px"
	 viewBox="-440 986 1200 300" enable-background="new -440 986 1200 300" xml:space="preserve">

	 <!-- <style>
		 @keyframes rotate {
		   from {
			 	transform: rotate(0deg);
			 }
			 to {
			 	transform: rotate(360deg);
			 }
		 }
		 @keyframes rotate-reverse {
		   from {
			 	transform: rotate(0deg);
			 }
			 to {
			 	transform: rotate(-360deg);
			 }
		 }
		 @keyframes scale-down {
		   0% {
			 	transform: scale(1,1);
				opacity: 1;
			 }
			 50% {
			 	transform: scale(0.9,0.9);
				opacity: .8;
			 }
			 100% {
			 	transform: scale(1,1);
				opacity: 1;
			 }
		 }
		 .rotate {
			 animation-name: rotate;
			 animation-duration: 15s;
			 animation-iteration-count: infinite;
			 animation-timing-function: cubic-bezier(0.68, -0.55, 0.27, 1.55);
			 transform-origin: center;
		 }
		 .rotate-reverse {
			 animation-name: rotate-reverse;
			 animation-duration: 20s;
			 animation-iteration-count: infinite;
			 animation-timing-function: cubic-bezier(0.6, -0.28, 0.74, 0.05);
			 transform-origin: center;
		 }
		 .rotate-mini {
			 animation-name: rotate;
			 animation-duration: 5s;
			 animation-iteration-count: infinite;
			 animation-timing-function: ease-out;
			 transform-origin: center;
		 }
		 .rotate-reverse-mini {
			 animation-name: rotate-reverse;
			 animation-duration: 7s;
			 animation-iteration-count: infinite;
			 animation-timing-function: cubic-bezier(0.18, 0.89, 0.32, 1.28);
			 transform-origin: center;
		 }
	 </style> -->
<path fill="#4B2C86" d="M42.9,1080.4L13.9,1030c-0.7-1.2-0.7-2.8,0-4l29.1-50.4c0.7-1.2,2-2,3.5-2h58.2c1.4,0,2.7,0.8,3.5,2
	l29.1,50.4c0.7,1.2,0.7,2.8,0,4l-29.1,50.4c-0.7,1.2-2,2-3.5,2H46.4C45,1082.4,43.7,1081.6,42.9,1080.4z"/>
<path class="rotate-reverse" fill="#488FCC" d="M-108.1,1080.4l-29.1-50.4c-0.7-1.2-0.7-2.8,0-4l29.1-50.4c0.7-1.2,2-2,3.5-2h58.2c1.4,0,2.7,0.8,3.5,2
	l29.1,50.4c0.7,1.2,0.7,2.8,0,4l-29.1,50.4c-0.7,1.2-2,2-3.5,2h-58.2C-106,1082.4-107.3,1081.6-108.1,1080.4z"/>
<path class="rotate" fill="#4B2C86" d="M191.9,994.4L162.9,944c-0.7-1.2-0.7-2.8,0-4l29.1-50.4c0.7-1.2,2-2,3.5-2h58.2c1.4,0,2.7,0.8,3.5,2
	l29.1,50.4c0.7,1.2,0.7,2.8,0,4l-29.1,50.4c-0.7,1.2-2,2-3.5,2h-58.2C194,996.4,192.7,995.6,191.9,994.4z"/>
<path class="rotate" fill="#488FCC" d="M342.9,994.4L313.9,944c-0.7-1.2-0.7-2.8,0-4l29.1-50.4c0.7-1.2,2-2,3.5-2h58.2c1.4,0,2.7,0.8,3.5,2
	l29.1,50.4c0.7,1.2,0.7,2.8,0,4l-29.1,50.4c-0.7,1.2-2,2-3.5,2h-58.2C345,996.4,343.7,995.6,342.9,994.4z"/>
<path fill="#4B2C86" d="M342.9,1155.4l-29.1-50.4c-0.7-1.2-0.7-2.8,0-4l29.1-50.4c0.7-1.2,2-2,3.5-2h58.2c1.4,0,2.7,0.8,3.5,2
	l29.1,50.4c0.7,1.2,0.7,2.8,0,4l-29.1,50.4c-0.7,1.2-2,2-3.5,2h-58.2C345,1157.4,343.7,1156.6,342.9,1155.4z"/>
<path class="rotate-reverse-mini" fill="#4B2C86" d="M279,1057.4l-19.1-33.7c-0.5-0.8-0.5-1.8,0-2.7l19.1-33.7c0.5-0.8,1.3-1.3,2.3-1.3h38.2
	c0.9,0,1.8,0.5,2.3,1.3l19.1,33.7c0.5,0.8,0.5,1.8,0,2.7l-19.1,33.7c-0.5,0.8-1.3,1.3-2.3,1.3h-38.2
	C280.4,1058.8,279.5,1058.3,279,1057.4z"/>
<path class="rotate-mini" fill="#488FCC" d="M128.6,1057.4l-19.1-33.7c-0.5-0.8-0.5-1.8,0-2.7l19.1-33.7c0.5-0.8,1.3-1.3,2.3-1.3h38.2
	c0.9,0,1.8,0.5,2.3,1.3l19.1,33.7c0.5,0.8,0.5,1.8,0,2.7l-19.1,33.7c-0.5,0.8-1.3,1.3-2.3,1.3h-38.2
	C130,1058.8,129.1,1058.3,128.6,1057.4z"/>
<path fill="#488FCC" d="M428.6,1052l-19.1-33.7c-0.5-0.8-0.5-1.8,0-2.7l19.1-33.7c0.5-0.8,1.3-1.3,2.3-1.3h38.2
	c0.9,0,1.8,0.5,2.3,1.3l19.1,33.7c0.5,0.8,0.5,1.8,0,2.7l-19.1,33.7c-0.5,0.8-1.3,1.3-2.3,1.3h-38.2
	C430,1053.4,429.1,1052.9,428.6,1052z"/>
<path class="rotate-reverse" fill="#488FCC" d="M191.9,1155.4l-29.1-50.4c-0.7-1.2-0.7-2.8,0-4l29.1-50.4c0.7-1.2,2-2,3.5-2h58.2c1.4,0,2.7,0.8,3.5,2
	l29.1,50.4c0.7,1.2,0.7,2.8,0,4l-29.1,50.4c-0.7,1.2-2,2-3.5,2h-58.2C194,1157.4,192.7,1156.6,191.9,1155.4z"/>
<path class="rotate-mini" fill="#4B2C86" d="M-21,1127l-19.1-33.7c-0.5-0.8-0.5-1.8,0-2.7L-21,1057c0.5-0.8,1.3-1.3,2.3-1.3h38.2c0.9,0,1.8,0.5,2.3,1.3
	l19.1,33.7c0.5,0.8,0.5,1.8,0,2.7L21.8,1127c-0.5,0.8-1.3,1.3-2.3,1.3h-38.2C-19.6,1128.4-20.5,1127.9-21,1127z"/>
<path class="rotate-mini" fill="#4B2C86" d="M-321,1352l-19.1-33.7c-0.5-0.8-0.5-1.8,0-2.7l19.1-33.7c0.5-0.8,1.3-1.3,2.3-1.3h38.2
	c0.9,0,1.8,0.5,2.3,1.3l19.1,33.7c0.5,0.8,0.5,1.8,0,2.7l-19.1,33.7c-0.5,0.8-1.3,1.3-2.3,1.3h-38.2
	C-319.6,1353.4-320.5,1352.9-321,1352z"/>
<path fill="#488FCC" d="M-171.4,1282.4l-19.1-33.7c-0.5-0.8-0.5-1.8,0-2.7l19.1-33.7c0.5-0.8,1.3-1.3,2.3-1.3h38.2
	c0.9,0,1.8,0.5,2.3,1.3l19.1,33.7c0.5,0.8,0.5,1.8,0,2.7l-19.1,33.7c-0.5,0.8-1.3,1.3-2.3,1.3h-38.2
	C-170,1283.8-170.9,1283.3-171.4,1282.4z"/>
<path class="rotate-mini" fill="#4B2C86" d="M-21,1282.4l-19.1-33.7c-0.5-0.8-0.5-1.8,0-2.7l19.1-33.7c0.5-0.8,1.3-1.3,2.3-1.3h38.2
	c0.9,0,1.8,0.5,2.3,1.3l19.1,33.7c0.5,0.8,0.5,1.8,0,2.7l-19.1,33.7c-0.5,0.8-1.3,1.3-2.3,1.3h-38.2
	C-19.6,1283.8-20.5,1283.3-21,1282.4z"/>
<path class="rotate-reverse" fill="#488FCC" d="M42.9,1219.4L13.9,1169c-0.7-1.2-0.7-2.8,0-4l29.1-50.4c0.7-1.2,2-2,3.5-2h58.2c1.4,0,2.7,0.8,3.5,2
	l29.1,50.4c0.7,1.2,0.7,2.8,0,4l-29.1,50.4c-0.7,1.2-2,2-3.5,2H46.4C45,1221.4,43.7,1220.6,42.9,1219.4z"/>
<path class="rotate-reverse" fill="#4B2C86" d="M42.9,1380.4L13.9,1330c-0.7-1.2-0.7-2.8,0-4l29.1-50.4c0.7-1.2,2-2,3.5-2h58.2c1.4,0,2.7,0.8,3.5,2
	l29.1,50.4c0.7,1.2,0.7,2.8,0,4l-29.1,50.4c-0.7,1.2-2,2-3.5,2H46.4C45,1382.4,43.7,1381.6,42.9,1380.4z"/>
<path fill="#488FCC" d="M128.6,1277l-19.1-33.7c-0.5-0.8-0.5-1.8,0-2.7l19.1-33.7c0.5-0.8,1.3-1.3,2.3-1.3h38.2
	c0.9,0,1.8,0.5,2.3,1.3l19.1,33.7c0.5,0.8,0.5,1.8,0,2.7l-19.1,33.7c-0.5,0.8-1.3,1.3-2.3,1.3h-38.2
	C130,1278.4,129.1,1277.9,128.6,1277z"/>
<path class="rotate-reverse" fill="#4B2C86" d="M191.9,1294.4l-29.1-50.4c-0.7-1.2-0.7-2.8,0-4l29.1-50.4c0.7-1.2,2-2,3.5-2h58.2c1.4,0,2.7,0.8,3.5,2
	l29.1,50.4c0.7,1.2,0.7,2.8,0,4l-29.1,50.4c-0.7,1.2-2,2-3.5,2h-58.2C194,1296.4,192.7,1295.6,191.9,1294.4z"/>
<path class="rotate-reverse " fill="#488FCC" d="M342.9,1294.4l-29.1-50.4c-0.7-1.2-0.7-2.8,0-4l29.1-50.4c0.7-1.2,2-2,3.5-2h58.2c1.4,0,2.7,0.8,3.5,2
	l29.1,50.4c0.7,1.2,0.7,2.8,0,4l-29.1,50.4c-0.7,1.2-2,2-3.5,2h-58.2C345,1296.4,343.7,1295.6,342.9,1294.4z"/>
<path class="rotate-mini" fill="#4B2C86" d="M279,1202l-19.1-33.7c-0.5-0.8-0.5-1.8,0-2.7L279,1132c0.5-0.8,1.3-1.3,2.3-1.3h38.2c0.9,0,1.8,0.5,2.3,1.3
	l19.1,33.7c0.5,0.8,0.5,1.8,0,2.7l-19.1,33.7c-0.5,0.8-1.3,1.3-2.3,1.3h-38.2C280.4,1203.4,279.5,1202.9,279,1202z"/>
<path fill="#488FCC" d="M428.6,1352l-19.1-33.7c-0.5-0.8-0.5-1.8,0-2.7l19.1-33.7c0.5-0.8,1.3-1.3,2.3-1.3h38.2
	c0.9,0,1.8,0.5,2.3,1.3l19.1,33.7c0.5,0.8,0.5,1.8,0,2.7l-19.1,33.7c-0.5,0.8-1.3,1.3-2.3,1.3h-38.2
	C430,1353.4,429.1,1352.9,428.6,1352z"/>
<path class="rotate" fill="#4B2C86" d="M491.9,1369.4l-29.1-50.4c-0.7-1.2-0.7-2.8,0-4l29.1-50.4c0.7-1.2,2-2,3.5-2h58.2c1.4,0,2.7,0.8,3.5,2
	l29.1,50.4c0.7,1.2,0.7,2.8,0,4l-29.1,50.4c-0.7,1.2-2,2-3.5,2h-58.2C494,1371.4,492.7,1370.6,491.9,1369.4z"/>
<path class="rotate" fill="#488FCC" d="M642.9,1369.4l-29.1-50.4c-0.7-1.2-0.7-2.8,0-4l29.1-50.4c0.7-1.2,2-2,3.5-2h58.2c1.4,0,2.7,0.8,3.5,2
	l29.1,50.4c0.7,1.2,0.7,2.8,0,4l-29.1,50.4c-0.7,1.2-2,2-3.5,2h-58.2C645,1371.4,643.7,1370.6,642.9,1369.4z"/>
<path class="rotate-reverse-mini" fill="#4B2C86" d="M579,1277l-19.1-33.7c-0.5-0.8-0.5-1.8,0-2.7L579,1207c0.5-0.8,1.3-1.3,2.3-1.3h38.2c0.9,0,1.8,0.5,2.3,1.3
	l19.1,33.7c0.5,0.8,0.5,1.8,0,2.7l-19.1,33.7c-0.5,0.8-1.3,1.3-2.3,1.3h-38.2C580.4,1278.4,579.5,1277.9,579,1277z"/>
<path fill="#488FCC" d="M728.6,1207.4l-19.1-33.7c-0.5-0.8-0.5-1.8,0-2.7l19.1-33.7c0.5-0.8,1.3-1.3,2.3-1.3h38.2
	c0.9,0,1.8,0.5,2.3,1.3l19.1,33.7c0.5,0.8,0.5,1.8,0,2.7l-19.1,33.7c-0.5,0.8-1.3,1.3-2.3,1.3h-38.2
	C730,1208.8,729.1,1208.3,728.6,1207.4z"/>
<path class="rotate" fill="#4B2C86" d="M491.9,1069.4l-29.1-50.4c-0.7-1.2-0.7-2.8,0-4l29.1-50.4c0.7-1.2,2-2,3.5-2h58.2c1.4,0,2.7,0.8,3.5,2
	l29.1,50.4c0.7,1.2,0.7,2.8,0,4l-29.1,50.4c-0.7,1.2-2,2-3.5,2h-58.2C494,1071.4,492.7,1070.6,491.9,1069.4z"/>
<path class="rotate" fill="#488FCC" d="M642.9,1069.4l-29.1-50.4c-0.7-1.2-0.7-2.8,0-4l29.1-50.4c0.7-1.2,2-2,3.5-2h58.2c1.4,0,2.7,0.8,3.5,2
	l29.1,50.4c0.7,1.2,0.7,2.8,0,4l-29.1,50.4c-0.7,1.2-2,2-3.5,2h-58.2C645,1071.4,643.7,1070.6,642.9,1069.4z"/>
<path class="rotate" fill="#4B2C86" d="M642.9,1230.4l-29.1-50.4c-0.7-1.2-0.7-2.8,0-4l29.1-50.4c0.7-1.2,2-2,3.5-2h58.2c1.4,0,2.7,0.8,3.5,2
	l29.1,50.4c0.7,1.2,0.7,2.8,0,4l-29.1,50.4c-0.7,1.2-2,2-3.5,2h-58.2C645,1232.4,643.7,1231.6,642.9,1230.4z"/>
<path class="rotate-reverse-mini" fill="#4B2C86" d="M579,1132.4l-19.1-33.7c-0.5-0.8-0.5-1.8,0-2.7l19.1-33.7c0.5-0.8,1.3-1.3,2.3-1.3h38.2
	c0.9,0,1.8,0.5,2.3,1.3l19.1,33.7c0.5,0.8,0.5,1.8,0,2.7l-19.1,33.7c-0.5,0.8-1.3,1.3-2.3,1.3h-38.2
	C580.4,1133.8,579.5,1133.3,579,1132.4z"/>
<path class="rotate-reverse-mini" fill="#488FCC" d="M428.6,1132.4l-19.1-33.7c-0.5-0.8-0.5-1.8,0-2.7l19.1-33.7c0.5-0.8,1.3-1.3,2.3-1.3h38.2
	c0.9,0,1.8,0.5,2.3,1.3l19.1,33.7c0.5,0.8,0.5,1.8,0,2.7l-19.1,33.7c-0.5,0.8-1.3,1.3-2.3,1.3h-38.2
	C430,1133.8,429.1,1133.3,428.6,1132.4z"/>
<path class="rotate-reverse-mini" fill="#488FCC" d="M728.6,1127l-19.1-33.7c-0.5-0.8-0.5-1.8,0-2.7l19.1-33.7c0.5-0.8,1.3-1.3,2.3-1.3h38.2
	c0.9,0,1.8,0.5,2.3,1.3l19.1,33.7c0.5,0.8,0.5,1.8,0,2.7l-19.1,33.7c-0.5,0.8-1.3,1.3-2.3,1.3h-38.2
	C730,1128.4,729.1,1127.9,728.6,1127z"/>
<path class="rotate" fill="#488FCC" d="M491.9,1230.4l-29.1-50.4c-0.7-1.2-0.7-2.8,0-4l29.1-50.4c0.7-1.2,2-2,3.5-2h58.2c1.4,0,2.7,0.8,3.5,2
	l29.1,50.4c0.7,1.2,0.7,2.8,0,4l-29.1,50.4c-0.7,1.2-2,2-3.5,2h-58.2C494,1232.4,492.7,1231.6,491.9,1230.4z"/>
<path fill="#4B2C86" d="M-108.1,1219.4l-29.1-50.4c-0.7-1.2-0.7-2.8,0-4l29.1-50.4c0.7-1.2,2-2,3.5-2h58.2c1.4,0,2.7,0.8,3.5,2
	l29.1,50.4c0.7,1.2,0.7,2.8,0,4l-29.1,50.4c-0.7,1.2-2,2-3.5,2h-58.2C-106,1221.4-107.3,1220.6-108.1,1219.4z"/>
<path class="rotate-reverse" fill="#488FCC" d="M-108.1,1380.4l-29.1-50.4c-0.7-1.2-0.7-2.8,0-4l29.1-50.4c0.7-1.2,2-2,3.5-2h58.2c1.4,0,2.7,0.8,3.5,2
	l29.1,50.4c0.7,1.2,0.7,2.8,0,4l-29.1,50.4c-0.7,1.2-2,2-3.5,2h-58.2C-106,1382.4-107.3,1381.6-108.1,1380.4z"/>
<path fill="#4B2C86" d="M-408.1,1144.4l-29.1-50.4c-0.7-1.2-0.7-2.8,0-4l29.1-50.4c0.7-1.2,2-2,3.5-2h58.2c1.4,0,2.7,0.8,3.5,2
	l29.1,50.4c0.7,1.2,0.7,2.8,0,4l-29.1,50.4c-0.7,1.2-2,2-3.5,2h-58.2C-406,1146.4-407.3,1145.6-408.1,1144.4z"/>
<path class="rotate-reverse" fill="#488FCC" d="M-257.1,1144.4l-29.1-50.4c-0.7-1.2-0.7-2.8,0-4l29.1-50.4c0.7-1.2,2-2,3.5-2h58.2c1.4,0,2.7,0.8,3.5,2
	l29.1,50.4c0.7,1.2,0.7,2.8,0,4l-29.1,50.4c-0.7,1.2-2,2-3.5,2h-58.2C-255,1146.4-256.3,1145.6-257.1,1144.4z"/>
<path class="rotate-reverse" fill="#4B2C86" d="M-257.1,1305.4l-29.1-50.4c-0.7-1.2-0.7-2.8,0-4l29.1-50.4c0.7-1.2,2-2,3.5-2h58.2c1.4,0,2.7,0.8,3.5,2
	l29.1,50.4c0.7,1.2,0.7,2.8,0,4l-29.1,50.4c-0.7,1.2-2,2-3.5,2h-58.2C-255,1307.4-256.3,1306.6-257.1,1305.4z"/>
<path class="rotate-mini" fill="#4B2C86" d="M-321,1207.4l-19.1-33.7c-0.5-0.8-0.5-1.8,0-2.7l19.1-33.7c0.5-0.8,1.3-1.3,2.3-1.3h38.2
	c0.9,0,1.8,0.5,2.3,1.3l19.1,33.7c0.5,0.8,0.5,1.8,0,2.7l-19.1,33.7c-0.5,0.8-1.3,1.3-2.3,1.3h-38.2
	C-319.6,1208.8-320.5,1208.3-321,1207.4z"/>
<path class="rotate-mini" fill="#488FCC" d="M-471.4,1207.4l-19.1-33.7c-0.5-0.8-0.5-1.8,0-2.7l19.1-33.7c0.5-0.8,1.3-1.3,2.3-1.3h38.2
	c0.9,0,1.8,0.5,2.3,1.3l19.1,33.7c0.5,0.8,0.5,1.8,0,2.7l-19.1,33.7c-0.5,0.8-1.3,1.3-2.3,1.3h-38.2
	C-470,1208.8-470.9,1208.3-471.4,1207.4z"/>
<path class="rotate-mini" fill="#4B2C86" d="M-321,1052l-19.1-33.7c-0.5-0.8-0.5-1.8,0-2.7L-321,982c0.5-0.8,1.3-1.3,2.3-1.3h38.2c0.9,0,1.8,0.5,2.3,1.3
	l19.1,33.7c0.5,0.8,0.5,1.8,0,2.7l-19.1,33.7c-0.5,0.8-1.3,1.3-2.3,1.3h-38.2C-319.6,1053.4-320.5,1052.9-321,1052z"/>
<path class="rotate-mini" fill="#488FCC" d="M-171.4,1202l-19.1-33.7c-0.5-0.8-0.5-1.8,0-2.7l19.1-33.7c0.5-0.8,1.3-1.3,2.3-1.3h38.2
	c0.9,0,1.8,0.5,2.3,1.3l19.1,33.7c0.5,0.8,0.5,1.8,0,2.7l-19.1,33.7c-0.5,0.8-1.3,1.3-2.3,1.3h-38.2
	C-170,1203.4-170.9,1202.9-171.4,1202z"/>
<path class="rotate-reverse" fill="#488FCC" d="M-408.1,1305.4l-29.1-50.4c-0.7-1.2-0.7-2.8,0-4l29.1-50.4c0.7-1.2,2-2,3.5-2h58.2c1.4,0,2.7,0.8,3.5,2
	l29.1,50.4c0.7,1.2,0.7,2.8,0,4l-29.1,50.4c-0.7,1.2-2,2-3.5,2h-58.2C-406,1307.4-407.3,1306.6-408.1,1305.4z"/>
<path class="rotate-reverse-mini" fill="#488FCC" d="M-471.4,1127l-19.1-33.7c-0.5-0.8-0.5-1.8,0-2.7l19.1-33.7c0.5-0.8,1.3-1.3,2.3-1.3h38.2
	c0.9,0,1.8,0.5,2.3,1.3l19.1,33.7c0.5,0.8,0.5,1.8,0,2.7l-19.1,33.7c-0.5,0.8-1.3,1.3-2.3,1.3h-38.2
	C-470,1128.4-470.9,1127.9-471.4,1127z"/>
<path class="rotate-reverse" fill="#4B2C86" d="M-257.1,1005.4l-29.1-50.4c-0.7-1.2-0.7-2.8,0-4l29.1-50.4c0.7-1.2,2-2,3.5-2h58.2c1.4,0,2.7,0.8,3.5,2
	l29.1,50.4c0.7,1.2,0.7,2.8,0,4l-29.1,50.4c-0.7,1.2-2,2-3.5,2h-58.2C-255,1007.4-256.3,1006.6-257.1,1005.4z"/>
<path class="rotate-reverse" fill="#488FCC" d="M-408.1,1005.4l-29.1-50.4c-0.7-1.2-0.7-2.8,0-4l29.1-50.4c0.7-1.2,2-2,3.5-2h58.2c1.4,0,2.7,0.8,3.5,2
	l29.1,50.4c0.7,1.2,0.7,2.8,0,4l-29.1,50.4c-0.7,1.2-2,2-3.5,2h-58.2C-406,1007.4-407.3,1006.6-408.1,1005.4z"/>
</svg>
