<?xml version="1.0" encoding="utf-8"?>
<!-- Generator: Adobe Illustrator 18.0.0, SVG Export Plug-In . SVG Version: 6.00 Build 0)  -->
<!DOCTYPE svg PUBLIC "-//W3C//DTD SVG 1.1//EN" "http://www.w3.org/Graphics/SVG/1.1/DTD/svg11.dtd">
<svg version="1.1" id="Layer_1" xmlns="http://www.w3.org/2000/svg" xmlns:xlink="http://www.w3.org/1999/xlink" x="0px" y="0px"
	 viewBox="0 0 698.7 315.3" enable-background="new 0 0 698.7 315.3" xml:space="preserve">
<g>
	
		<polyline fill="none" stroke="#27AAE1" stroke-width="5" stroke-linecap="round" stroke-linejoin="round" stroke-miterlimit="10" points="
		18.5,20.3 18.5,206.8 179.6,113.5 341.7,206.8 341.7,20.3 	"/>
	
		<polyline fill="none" stroke="#662D91" stroke-width="5" stroke-linecap="round" stroke-linejoin="round" stroke-miterlimit="10" points="
		356.5,206.5 356.5,20.3 680.2,206.8 680.2,20.3 	"/>
	<g>
		
			<path fill="#00AEEF" stroke="#27AAE1" stroke-width="2" stroke-linecap="round" stroke-linejoin="round" stroke-miterlimit="10" d="
			M24.4,237.1c0.2,0,0.4,0.1,0.5,0.4l11.2,55.2L47.2,245c0.1-0.5,0.6-0.5,0.6-0.5h1.5c0,0,0.5,0,0.6,0.5l11.1,47.6L72,237.5
			c0.1-0.3,0.2-0.4,0.5-0.4h1.3c0.2,0,0.3,0.2,0.2,0.5L62.5,294c-0.1,0.5-0.7,0.5-0.7,0.5h-2c0,0-0.5,0-0.7-0.5l-10.7-46.2L37.7,294
			c-0.2,0.5-0.7,0.5-0.7,0.5h-2c0,0-0.5,0-0.7-0.5l-11.6-56.4c-0.1-0.3,0-0.5,0.2-0.5H24.4z"/>
		
			<path fill="#00AEEF" stroke="#27AAE1" stroke-width="2" stroke-linecap="round" stroke-linejoin="round" stroke-miterlimit="10" d="
			M112.3,237.1c0.5,0,0.5,0.5,0.5,0.5v0.9c0,0,0,0.5-0.5,0.5H87.6v25.3h18.9c0.5,0,0.5,0.5,0.5,0.5v0.8c0,0,0,0.5-0.5,0.6H87.6v26.5
			h24.7c0.5,0,0.5,0.5,0.5,0.5v0.9c0,0,0,0.5-0.5,0.5H85.6v-57.4H112.3z"/>
		
			<path fill="#00AEEF" stroke="#27AAE1" stroke-width="2" stroke-linecap="round" stroke-linejoin="round" stroke-miterlimit="10" d="
			M127.2,237.1c0,0,0.5,0,0.7,0.5l26.6,55.1l-0.1-55.1c0-0.5,0.5-0.5,0.5-0.5h1c0,0,0.5,0,0.5,0.5V294c0,0.5-0.5,0.5-0.5,0.5h-2.3
			c0,0-0.5,0-0.7-0.5l-26.6-55.4l0.2,55.4c0,0.5-0.5,0.5-0.5,0.5h-1c0,0-0.5,0-0.5-0.5v-56.4c0-0.5,0.5-0.5,0.5-0.5H127.2z"/>
		
			<path fill="#00AEEF" stroke="#27AAE1" stroke-width="2" stroke-linecap="round" stroke-linejoin="round" stroke-miterlimit="10" d="
			M184.9,237.1c11.2,0,15.6,7.1,15.6,17.3v22.8c0,9.7-4.4,17.3-15.6,17.3h-15.1v-57.4H184.9z M171.8,292.6h13.1
			c8.4,0,13.6-4.8,13.6-15.4v-22.8c0-10.9-5-15.4-13.6-15.4h-13.1V292.6z"/>
		
			<path fill="#00AEEF" stroke="#27AAE1" stroke-width="2" stroke-linecap="round" stroke-linejoin="round" stroke-miterlimit="10" d="
			M240.2,237.1c0.5,0,0.5,0.5,0.5,0.5v0.9c0,0,0,0.5-0.5,0.5h-24.7v25.3h18.9c0.5,0,0.5,0.5,0.5,0.5v0.8c0,0,0,0.5-0.5,0.6h-18.9
			v26.5h24.7c0.5,0,0.5,0.5,0.5,0.5v0.9c0,0,0,0.5-0.5,0.5h-26.6v-57.4H240.2z"/>
		
			<path fill="#00AEEF" stroke="#27AAE1" stroke-width="2" stroke-linecap="round" stroke-linejoin="round" stroke-miterlimit="10" d="
			M251.6,237.1c0,0,0.5,0,0.5,0.5v55h23.1c0.5,0,0.5,0.5,0.5,0.5v0.9c0,0,0,0.5-0.5,0.5h-25.1v-56.9c0-0.5,0.5-0.5,0.5-0.5H251.6z"
			/>
		<path fill="#662D91" d="M289.8,237.1c0,0,0.5,0,0.7,0.5l26.6,55.1l-0.1-55.1c0-0.5,0.5-0.5,0.5-0.5h1c0,0,0.5,0,0.5,0.5V294
			c0,0.5-0.5,0.5-0.5,0.5h-2.3c0,0-0.5,0-0.7-0.5L289,238.5l0.2,55.4c0,0.5-0.5,0.5-0.5,0.5h-1c0,0-0.5,0-0.5-0.5v-56.4
			c0-0.5,0.5-0.5,0.5-0.5H289.8z"/>
		<path fill="#662D91" d="M348.8,237.1c0,0,0.5,0,0.7,0.5L365,294c0,0.5-0.5,0.5-0.5,0.5h-0.7c0,0-0.6,0-0.7-0.5l-6.1-21.7h-18.4
			l-6.3,21.7c-0.2,0.5-0.7,0.5-0.7,0.5h-0.7c0,0-0.5,0-0.5-0.5l16.1-56.4c0.2-0.5,0.7-0.5,0.7-0.5H348.8z M338.7,270.3h17.7
			l-8.3-31.2h-0.7L338.7,270.3z"/>
		<path fill="#662D91" d="M404.4,249.7c0.1,0.5-0.3,0.7-0.3,0.7l-1,0.2c0,0-0.5,0-0.6-0.4c-1.1-7-4.4-11.7-13.9-11.7
			c-11.1,0-13.5,7.1-13.5,12.1c0,3.6,2.4,7,6.7,9.3l12.9,7.1c5.3,2.9,10.3,7,10.3,13.3c0,8.8-5.9,14.8-16.4,14.8
			c-6.5,0-16.2-3.6-16.2-16.1c0-0.5,0.5-0.5,0.5-0.5h1c0,0,0.5,0,0.5,0.5c0,9.2,6.7,14.1,14.2,14.1c9.9,0,14.4-5.9,14.4-12.8
			c0-5.5-5-9.3-10.5-12.3l-10.6-5.7c-7.1-3.8-8.9-8-8.9-12c0-8.9,7.1-13.8,15.5-13.8C398.8,236.5,403.3,242.4,404.4,249.7z"/>
		<path fill="#662D91" d="M445.1,249.4c0.1,0.5-0.3,0.7-0.3,0.7l-1,0.2c0,0-0.5,0-0.6-0.4c-1.9-8.1-5.2-11.5-13.1-11.5
			c-8.9,0-14.1,4.9-14.1,16.1v22.6c0,10.6,4.5,16.1,14.2,16.1c9.7,0,13.3-5.2,13.3-16.4c0-0.5,0.5-0.5,0.5-0.5h1c0,0,0.5,0,0.5,0.5
			c0,10.6-3.5,18.3-15.2,18.3c-11.7,0-16.2-8-16.2-18c0,0,0-22.5,0-22.7c0-9.9,4.6-17.9,16.1-17.9
			C438.8,236.5,443.3,240.7,445.1,249.4z"/>
		<path fill="#662D91" d="M460.1,237.1c0,0,0.5,0,0.5,0.5V294c0,0.5-0.5,0.5-0.5,0.5h-1c0,0-0.5,0-0.5-0.5v-56.4
			c0-0.5,0.5-0.5,0.5-0.5H460.1z"/>
		<path fill="#662D91" d="M478.3,237.1c0,0,0.6,0,0.7,0.5l13.8,29l13.6-29c0.2-0.5,0.7-0.5,0.7-0.5h2c0,0,0.5,0,0.5,0.5V294
			c0,0.5-0.5,0.5-0.5,0.5h-1c0,0-0.5,0-0.5-0.5v-54.2l-13.8,29c-0.2,0.5-0.7,0.5-0.7,0.5h-0.8c0,0-0.5,0-0.7-0.5l-13.9-29V294
			c0,0.5-0.5,0.5-0.5,0.5h-1c0,0-0.5,0-0.5-0.5v-56.4c0-0.5,0.5-0.5,0.5-0.5H478.3z"/>
		<path fill="#662D91" d="M550.4,237.1c0.5,0,0.5,0.5,0.5,0.5v0.9c0,0,0,0.5-0.5,0.5h-24.7v25.3h18.9c0.5,0,0.5,0.5,0.5,0.5v0.8
			c0,0,0,0.5-0.5,0.6h-18.9v26.5h24.7c0.5,0,0.5,0.5,0.5,0.5v0.9c0,0,0,0.5-0.5,0.5h-26.6v-57.4H550.4z"/>
		<path fill="#662D91" d="M565.3,237.1c0,0,0.5,0,0.7,0.5l26.6,55.1l-0.1-55.1c0-0.5,0.5-0.5,0.5-0.5h1c0,0,0.5,0,0.5,0.5V294
			c0,0.5-0.5,0.5-0.5,0.5h-2.3c0,0-0.5,0-0.7-0.5l-26.6-55.4l0.2,55.4c0,0.5-0.5,0.5-0.5,0.5h-1c0,0-0.5,0-0.5-0.5v-56.4
			c0-0.5,0.5-0.5,0.5-0.5H565.3z"/>
		<path fill="#662D91" d="M637.1,237.1c0.5,0,0.5,0.5,0.5,0.5v0.9c0,0,0,0.5-0.5,0.5h-15v55c0,0.5-0.5,0.5-0.5,0.5h-1
			c0,0-0.5,0-0.5-0.5v-55h-15c-0.5,0-0.5-0.5-0.5-0.5v-0.9c0,0,0-0.5,0.5-0.5H637.1z"/>
		<path fill="#662D91" d="M675.1,253.9v23.8c0,10.5-4.3,17.4-15.6,17.4c-11.2,0-15.6-6.9-15.6-17.4v-23.8c0-10.5,4.3-17.4,15.6-17.4
			C670.8,236.5,675.1,243.4,675.1,253.9z M645.9,253.9v23.8c0,11,4.8,15.5,13.6,15.5s13.6-4.5,13.6-15.5v-23.8
			c0-11-4.8-15.5-13.6-15.5S645.9,242.9,645.9,253.9z"/>
	</g>
</g>
</svg>
