<?xml version="1.0" encoding="utf-8"?>
<!-- Generator: Adobe Illustrator 18.0.0, SVG Export Plug-In . SVG Version: 6.00 Build 0)  -->
<!DOCTYPE svg PUBLIC "-//W3C//DTD SVG 1.1//EN" "http://www.w3.org/Graphics/SVG/1.1/DTD/svg11.dtd">
<svg version="1.1" id="Layer_1" xmlns="http://www.w3.org/2000/svg" xmlns:xlink="http://www.w3.org/1999/xlink" x="0px" y="0px"
	 viewBox="0 0 663 444.3" enable-background="new 0 0 663 444.3" xml:space="preserve">
<polygon fill="#4B2D87" points="-1005.8,137.4 -1005.8,313.3 -961.9,357.9 -841.6,291.3 -719.4,357.9 -676.1,313.3 -676.1,137.4
	-719.4,93.5 -764,137.4 -764,225.4 -841.6,181.4 -917.9,224.8 -917.9,137.4 -961.9,93.5 "/>
<g>
	<polygon fill="#372F8B" points="-544,49.2 -588.1,93.2 -588.1,137.4 -632,93.5 -676.1,137.4 -676.1,313.3 -632.1,357.9 -588,313.3
		-588,269.1 -544.1,313.6 -500,269 -500,93.2 	"/>
	<polygon fill="#488FCC" points="-544,49.2 -588.1,93.2 -588.1,137.4 -632,93.5 -676.1,137.4 -676.1,313.3 -632.1,357.9 -588,313.3
		-588,269.1 -544.1,313.6 -500,269 -500,93.2 	"/>
</g>
<g>
	<path fill="#4B2D87" d="M78.8,104.2v172.6c0,0.9,0.5,2.2,1.2,2.8l40.7,41.3c1.2,1.2,3.3,1.5,4.8,0.7l115.7-64
		c1.1-0.6,2.8-0.6,3.9,0l117.5,64.1c1.5,0.8,3.6,0.5,4.8-0.7l40.1-41.2c0.6-0.6,1.1-1.9,1.1-2.8V104.2c0-0.9-0.5-2.2-1.2-2.8
		l-39.4-40c-1.5-1.6-4.1-1.6-5.7,0l-40.5,40c-0.7,0.6-1.2,1.9-1.2,2.8v79.4c0,3.8-2.7,5.3-6,3.5L245,147.7c-1.1-0.6-2.9-0.6-3.9,0
		l-68.4,38.8c-3.3,1.9-6,0.3-6-3.5v-78.8c0-0.9-0.5-2.2-1.2-2.8l-40-40c-1.6-1.6-4.1-1.6-5.7,0l-40,40
		C79.3,102.1,78.8,103.3,78.8,104.2z"/>
	<g>
		<path fill="#488FCC" d="M537.7,17.2l-40.1,40c-0.6,0.6-1.2,1.9-1.2,2.8v32.9c0,5.3-3.1,6.6-6.8,2.8l-34.3-34.3
			c-1.6-1.6-4.1-1.6-5.7,0l-40.1,40c-0.6,0.6-1.2,1.9-1.2,2.8v172.6c0,0.9,0.5,2.2,1.2,2.8l40,40.5c1.6,1.6,4.1,1.6,5.7,0l40-40.5
			c0.6-0.6,1.2-1.9,1.2-2.8V244c0-5.4,3.1-6.6,6.8-2.8l34.3,34.7c1.6,1.6,4.1,1.6,5.7,0l40-40.5c0.6-0.6,1.2-1.9,1.2-2.8V60
			c0-0.9-0.5-2.2-1.2-2.8l-40-40C541.8,15.6,539.3,15.6,537.7,17.2z"/>
	</g>
	<path fill="#4B2D87" d="M21.1,377.4c0.8,0,1.7,0.6,2,1.7l7.1,39.7l6.6-35.8c0.4-2.1,1.4-2.1,2.2-2.1h3c0.6,0,1.9,0,2.3,2.1
		l6.6,35.8l7.1-39.7c0.3-1.2,1.2-1.7,2-1.7h3.2c0,0,2.3,0,1.8,2.3L56.3,426c-0.4,1.8-2.2,1.8-2.2,1.8h-6c0,0-1.9,0-2.4-2l-5-31.2
		L35.4,426c-0.4,1.8-2.2,1.8-2.2,1.8h-6.1c0,0-1.7,0-2.2-1.8l-8.9-46.3c-0.5-2.3,1.8-2.3,1.8-2.3H21.1z"/>
	<path fill="#4B2D87" d="M99.3,377.4c2.1,0,2.1,2,2.1,2v2.8c0,0,0,2-2,2H80.9V399h13.7c2.1,0,2.1,2,2.1,2v2.8c0,0,0,2-2,2H80.9v15.1
		h18.4c2.1,0,2.1,2,2.1,2v2.8c0,0,0,2-2,2H73.9v-50.4H99.3z"/>
	<path fill="#4B2D87" d="M118,377.4c0,0,1.4,0,2.2,1.6l15.2,36.3l-0.4-35.8c0,0,0-2.1,2.1-2.1h2.8c0,0,2.1,0,2.1,2.1v46.2
		c0,0,0,2.1-2.1,2.1h-4.3c0,0-1.6,0-2.2-1.5l-15.1-36.4l0.4,35.8c0,0,0,2.1-2.1,2.1h-2.8c0,0-2.1,0-2.1-2.1v-46.2c0,0,0-2.1,2.1-2.1
		H118z"/>
	<path fill="#4B2D87" d="M168.1,377.4c10.7,0,14.8,7.2,14.8,16.3v17.9c0,9.1-4.1,16.3-14.8,16.3h-14.4v-50.4H168.1z M160.7,421h7.4
		c4.9,0,7.8-3,7.8-9.5v-17.9c0-6.6-3-9.5-7.8-9.5h-7.4V421z"/>
	<path fill="#4B2D87" d="M219.4,377.4c2.1,0,2.1,2,2.1,2v2.8c0,0,0,2-2,2H201V399h13.7c2.1,0,2.1,2,2.1,2v2.8c0,0,0,2-2,2H201v15.1
		h18.4c2.1,0,2.1,2,2.1,2v2.8c0,0,0,2-2,2H194v-50.4H219.4z"/>
	<path fill="#4B2D87" d="M236.5,377.4c0,0,2.1,0,2.1,2.1v41.5H253c2.2,0,2.2,2,2.2,2v2.7c0,0,0,2.1-2.2,2.1h-21.3v-48.3
		c0-2.1,2-2.1,2-2.1H236.5z"/>
	<path fill="#488FCC" d="M285.4,377.4c0,0,1.4,0,2.2,1.6l15.2,36.3l-0.4-35.8c0,0,0-2.1,2.1-2.1h2.8c0,0,2.1,0,2.1,2.1v46.2
		c0,0,0,2.1-2.1,2.1H303c0,0-1.6,0-2.2-1.5l-15.1-36.4l0.4,35.8c0,0,0,2.1-2.1,2.1h-2.8c0,0-2.1,0-2.1-2.1v-46.2c0,0,0-2.1,2.1-2.1
		H285.4z"/>
	<path fill="#488FCC" d="M341.2,377.4c0,0,1.7,0,2.2,1.7l13,46.4c0.6,2.3-1.8,2.3-1.8,2.3h-3.3c-0.8,0-1.7-0.6-2-1.7l-3.4-13.9
		h-15.1L327,426c-0.4,1.2-1.2,1.7-1.9,1.7h-3.4c0,0-2.4,0-1.7-2.3l13.1-46.4c0.5-1.7,2.1-1.7,2.1-1.7H341.2z M338.1,384.2l-5.7,21.1
		h11.4l-5.6-21.1H338.1z"/>
	<path fill="#488FCC" d="M392.8,388.7c0.1,0.9-0.1,2-1.4,2.4l-2.5,0.6c-1.4,0.4-2.6-0.1-3-1.6c-1.1-4.5-3.2-6.3-7.5-6.3
		c-5.5,0-7.3,3.3-7.3,6c0,2.4,0.7,4.5,3,5.8l12.4,6.5c4.4,2.3,6.9,7,6.9,11.7c0,8.1-5.5,14.3-15,14.3c-5.9,0-14.8-3.4-14.8-14.8
		c0-2.1,2.1-2.1,2.1-2.1h2.9c0,0,2,0,2,2.1c0,6.5,4.2,7.9,7.8,7.9c5.8,0,8.1-4.1,8.1-7.5c0-2.3-1-4.6-4.5-6.4l-10.4-5.3
		c-6.6-3.4-7.4-8.7-7.4-12.5c0-8.3,6.6-12.9,14.3-12.9C387.2,376.9,391.8,381.9,392.8,388.7z"/>
	<path fill="#488FCC" d="M431.5,389.1c0.1,0.9-0.1,2-1.4,2.4l-2.5,0.6c-1.4,0.4-2.7-0.4-3-1.6c-0.4-4.2-3-6.9-7.6-6.9
		c-5.5,0-8.1,2.9-8.1,9.6v18.6c0,6.7,2.5,9.5,8.1,9.5c4.9,0,7.8-2.9,7.8-9.5c0-2.1,2-2.1,2-2.1h2.9c0,0,2.1,0,2.1,2.1
		c0,9.1-4,16.3-14.8,16.3c-9.9,0-15-6.8-15-16.3v-18.6c0-9.5,5.1-16.4,15-16.4C426.4,376.9,430.5,382.4,431.5,389.1z"/>
	<path fill="#488FCC" d="M446.6,377.4c0,0,2.2,0,2.2,2.1v46.2c0,2.1-2.1,2.1-2.1,2.1h-2.8c0,0-2.1,0-2.1-2.1v-46.2
		c0-2.1,2-2.1,2-2.1H446.6z"/>
	<path fill="#488FCC" d="M465.4,377.4c0,0,1.4,0,2.2,1.6l8.1,18.9l8-18.9c0.7-1.6,2.2-1.6,2.2-1.6h4.1c0,0,2.2,0,2.2,2.1v46.2
		c0,0,0,2.1-2.2,2.1h-2.7c0,0-2.2,0-2.2-2.1l0.7-35.6l-6.4,16.1c-0.6,1.4-1.2,1.5-2,1.5h-3.2c-0.9,0-1.6-0.1-2.2-1.5l-6.8-16.5
		l0.7,35.9c0,0,0,2.1-2.1,2.1h-2.8c0,0-2.1,0-2.1-2.1v-46.2c0,0,0-2.1,2.1-2.1H465.4z"/>
	<path fill="#488FCC" d="M529.6,377.4c2.1,0,2.1,2,2.1,2v2.8c0,0,0,2-2,2h-18.5V399h13.7c2.1,0,2.1,2,2.1,2v2.8c0,0,0,2-2,2h-13.8
		v15.1h18.4c2.1,0,2.1,2,2.1,2v2.8c0,0,0,2-2,2h-25.5v-50.4H529.6z"/>
	<path fill="#488FCC" d="M548.2,377.4c0,0,1.4,0,2.2,1.6l15.2,36.3l-0.4-35.8c0,0,0-2.1,2.1-2.1h2.8c0,0,2.1,0,2.1,2.1v46.2
		c0,0,0,2.1-2.1,2.1h-4.3c0,0-1.6,0-2.2-1.5l-15.1-36.4l0.4,35.8c0,0,0,2.1-2.1,2.1h-2.8c0,0-2.1,0-2.1-2.1v-46.2c0,0,0-2.1,2.1-2.1
		H548.2z"/>
	<path fill="#488FCC" d="M609.1,377.4c2.1,0,2.1,2,2.1,2v2.7c0,0,0,2.1-2.1,2.1h-9.5v41.5c0,2.1-2,2.1-2,2.1h-2.9c0,0-2.1,0-2.1-2.1
		v-41.5h-9.4c-2.1,0-2.1-2-2.1-2v-2.7c0,0,0-2.1,2.1-2.1H609.1z"/>
	<path fill="#488FCC" d="M647,393.3v18.6c0,9.1-4.2,16.3-14.9,16.3c-10.7,0-15-7.2-15-16.3v-18.6c0-9.1,4.2-16.4,15-16.4
		C642.8,376.9,647,384.1,647,393.3z M624.1,393.3v18.6c0,6.6,3.1,9.5,8,9.5c4.9,0,7.9-2.9,7.9-9.5v-18.6c0-6.6-3-9.6-7.9-9.6
		C627.2,383.7,624.1,386.7,624.1,393.3z"/>
</g>
</svg>
