<?xml version="1.0" encoding="utf-8"?>
<!-- Generator: Adobe Illustrator 18.0.0, SVG Export Plug-In . SVG Version: 6.00 Build 0)  -->
<!DOCTYPE svg PUBLIC "-//W3C//DTD SVG 1.1//EN" "http://www.w3.org/Graphics/SVG/1.1/DTD/svg11.dtd">
<svg version="1.1" id="Layer_1" xmlns="http://www.w3.org/2000/svg" xmlns:xlink="http://www.w3.org/1999/xlink" x="0px" y="0px"
	 viewBox="-440 -214 1200 1500" enable-background="new -440 -214 1200 1500" xml:space="preserve">
<g>
	<path fill="#4B2C86" d="M-21,827l-19.1-33.7c-0.5-0.8-0.5-1.8,0-2.7L-21,757c0.5-0.8,1.3-1.3,2.3-1.3h38.2c0.9,0,1.8,0.5,2.3,1.3
		l19.1,33.7c0.5,0.8,0.5,1.8,0,2.7L21.8,827c-0.5,0.8-1.3,1.3-2.3,1.3h-38.2C-19.6,828.4-20.5,827.9-21,827z"/>
</g>
<g>
	<path fill="#4B2C86" d="M491.9,769.4L462.9,719c-0.7-1.2-0.7-2.8,0-4l29.1-50.4c0.7-1.2,2-2,3.5-2h58.2c1.4,0,2.7,0.8,3.5,2
		l29.1,50.4c0.7,1.2,0.7,2.8,0,4l-29.1,50.4c-0.7,1.2-2,2-3.5,2h-58.2C494,771.4,492.7,770.6,491.9,769.4z"/>
	<path fill="#488FCC" d="M642.9,769.4L613.9,719c-0.7-1.2-0.7-2.8,0-4l29.1-50.4c0.7-1.2,2-2,3.5-2h58.2c1.4,0,2.7,0.8,3.5,2
		l29.1,50.4c0.7,1.2,0.7,2.8,0,4l-29.1,50.4c-0.7,1.2-2,2-3.5,2h-58.2C645,771.4,643.7,770.6,642.9,769.4z"/>
	<path fill="#4B2C86" d="M579,832.4l-19.1-33.7c-0.5-0.8-0.5-1.8,0-2.7l19.1-33.7c0.5-0.8,1.3-1.3,2.3-1.3h38.2
		c0.9,0,1.8,0.5,2.3,1.3l19.1,33.7c0.5,0.8,0.5,1.8,0,2.7l-19.1,33.7c-0.5,0.8-1.3,1.3-2.3,1.3h-38.2
		C580.4,833.8,579.5,833.3,579,832.4z"/>
	<path fill="#488FCC" d="M428.6,832.4l-19.1-33.7c-0.5-0.8-0.5-1.8,0-2.7l19.1-33.7c0.5-0.8,1.3-1.3,2.3-1.3h38.2
		c0.9,0,1.8,0.5,2.3,1.3l19.1,33.7c0.5,0.8,0.5,1.8,0,2.7l-19.1,33.7c-0.5,0.8-1.3,1.3-2.3,1.3h-38.2
		C430,833.8,429.1,833.3,428.6,832.4z"/>
	<path fill="#4B2C86" d="M579,677l-19.1-33.7c-0.5-0.8-0.5-1.8,0-2.7L579,607c0.5-0.8,1.3-1.3,2.3-1.3h38.2c0.9,0,1.8,0.5,2.3,1.3
		l19.1,33.7c0.5,0.8,0.5,1.8,0,2.7L621.8,677c-0.5,0.8-1.3,1.3-2.3,1.3h-38.2C580.4,678.4,579.5,677.9,579,677z"/>
	<path fill="#488FCC" d="M728.6,827l-19.1-33.7c-0.5-0.8-0.5-1.8,0-2.7l19.1-33.7c0.5-0.8,1.3-1.3,2.3-1.3h38.2
		c0.9,0,1.8,0.5,2.3,1.3l19.1,33.7c0.5,0.8,0.5,1.8,0,2.7L771.4,827c-0.5,0.8-1.3,1.3-2.3,1.3h-38.2
		C730,828.4,729.1,827.9,728.6,827z"/>
</g>
<g>
	<path fill="#4B2C86" d="M191.9,694.4L162.9,644c-0.7-1.2-0.7-2.8,0-4l29.1-50.4c0.7-1.2,2-2,3.5-2h58.2c1.4,0,2.7,0.8,3.5,2
		l29.1,50.4c0.7,1.2,0.7,2.8,0,4l-29.1,50.4c-0.7,1.2-2,2-3.5,2h-58.2C194,696.4,192.7,695.6,191.9,694.4z"/>
	<path fill="#488FCC" d="M342.9,694.4L313.9,644c-0.7-1.2-0.7-2.8,0-4l29.1-50.4c0.7-1.2,2-2,3.5-2h58.2c1.4,0,2.7,0.8,3.5,2
		l29.1,50.4c0.7,1.2,0.7,2.8,0,4l-29.1,50.4c-0.7,1.2-2,2-3.5,2h-58.2C345,696.4,343.7,695.6,342.9,694.4z"/>
	<path fill="#4B2C86" d="M342.9,855.4L313.9,805c-0.7-1.2-0.7-2.8,0-4l29.1-50.4c0.7-1.2,2-2,3.5-2h58.2c1.4,0,2.7,0.8,3.5,2
		l29.1,50.4c0.7,1.2,0.7,2.8,0,4l-29.1,50.4c-0.7,1.2-2,2-3.5,2h-58.2C345,857.4,343.7,856.6,342.9,855.4z"/>
	<path fill="#4B2C86" d="M279,757.4l-19.1-33.7c-0.5-0.8-0.5-1.8,0-2.7l19.1-33.7c0.5-0.8,1.3-1.3,2.3-1.3h38.2
		c0.9,0,1.8,0.5,2.3,1.3l19.1,33.7c0.5,0.8,0.5,1.8,0,2.7l-19.1,33.7c-0.5,0.8-1.3,1.3-2.3,1.3h-38.2
		C280.4,758.8,279.5,758.3,279,757.4z"/>
	<path fill="#488FCC" d="M128.6,757.4l-19.1-33.7c-0.5-0.8-0.5-1.8,0-2.7l19.1-33.7c0.5-0.8,1.3-1.3,2.3-1.3h38.2
		c0.9,0,1.8,0.5,2.3,1.3l19.1,33.7c0.5,0.8,0.5,1.8,0,2.7l-19.1,33.7c-0.5,0.8-1.3,1.3-2.3,1.3h-38.2
		C130,758.8,129.1,758.3,128.6,757.4z"/>
	<path fill="#4B2C86" d="M279,602l-19.1-33.7c-0.5-0.8-0.5-1.8,0-2.7L279,532c0.5-0.8,1.3-1.3,2.3-1.3h38.2c0.9,0,1.8,0.5,2.3,1.3
		l19.1,33.7c0.5,0.8,0.5,1.8,0,2.7L321.8,602c-0.5,0.8-1.3,1.3-2.3,1.3h-38.2C280.4,603.4,279.5,602.9,279,602z"/>
	<path fill="#488FCC" d="M428.6,752l-19.1-33.7c-0.5-0.8-0.5-1.8,0-2.7l19.1-33.7c0.5-0.8,1.3-1.3,2.3-1.3h38.2
		c0.9,0,1.8,0.5,2.3,1.3l19.1,33.7c0.5,0.8,0.5,1.8,0,2.7L471.4,752c-0.5,0.8-1.3,1.3-2.3,1.3h-38.2
		C430,753.4,429.1,752.9,428.6,752z"/>
	<path fill="#488FCC" d="M191.9,855.4L162.9,805c-0.7-1.2-0.7-2.8,0-4l29.1-50.4c0.7-1.2,2-2,3.5-2h58.2c1.4,0,2.7,0.8,3.5,2
		l29.1,50.4c0.7,1.2,0.7,2.8,0,4l-29.1,50.4c-0.7,1.2-2,2-3.5,2h-58.2C194,857.4,192.7,856.6,191.9,855.4z"/>
</g>
<g>
	<path fill="#488FCC" d="M42.9,619.4L13.9,569c-0.7-1.2-0.7-2.8,0-4l29.1-50.4c0.7-1.2,2-2,3.5-2h58.2c1.4,0,2.7,0.8,3.5,2
		l29.1,50.4c0.7,1.2,0.7,2.8,0,4l-29.1,50.4c-0.7,1.2-2,2-3.5,2H46.4C45,621.4,43.7,620.6,42.9,619.4z"/>
	<path fill="#4B2C86" d="M42.9,780.4L13.9,730c-0.7-1.2-0.7-2.8,0-4l29.1-50.4c0.7-1.2,2-2,3.5-2h58.2c1.4,0,2.7,0.8,3.5,2
		l29.1,50.4c0.7,1.2,0.7,2.8,0,4l-29.1,50.4c-0.7,1.2-2,2-3.5,2H46.4C45,782.4,43.7,781.6,42.9,780.4z"/>
	<path fill="#4B2C86" d="M-21,682.4l-19.1-33.7c-0.5-0.8-0.5-1.8,0-2.7l19.1-33.7c0.5-0.8,1.3-1.3,2.3-1.3h38.2
		c0.9,0,1.8,0.5,2.3,1.3L40.9,646c0.5,0.8,0.5,1.8,0,2.7l-19.1,33.7c-0.5,0.8-1.3,1.3-2.3,1.3h-38.2
		C-19.6,683.8-20.5,683.3-21,682.4z"/>
	<path fill="#4B2C86" d="M-21,527l-19.1-33.7c-0.5-0.8-0.5-1.8,0-2.7L-21,457c0.5-0.8,1.3-1.3,2.3-1.3h38.2c0.9,0,1.8,0.5,2.3,1.3
		l19.1,33.7c0.5,0.8,0.5,1.8,0,2.7L21.8,527c-0.5,0.8-1.3,1.3-2.3,1.3h-38.2C-19.6,528.4-20.5,527.9-21,527z"/>
	<path fill="#488FCC" d="M128.6,677l-19.1-33.7c-0.5-0.8-0.5-1.8,0-2.7l19.1-33.7c0.5-0.8,1.3-1.3,2.3-1.3h38.2
		c0.9,0,1.8,0.5,2.3,1.3l19.1,33.7c0.5,0.8,0.5,1.8,0,2.7L171.4,677c-0.5,0.8-1.3,1.3-2.3,1.3h-38.2
		C130,678.4,129.1,677.9,128.6,677z"/>
</g>
<g>
	<path fill="#488FCC" d="M728.6,607.4l-19.1-33.7c-0.5-0.8-0.5-1.8,0-2.7l19.1-33.7c0.5-0.8,1.3-1.3,2.3-1.3h38.2
		c0.9,0,1.8,0.5,2.3,1.3l19.1,33.7c0.5,0.8,0.5,1.8,0,2.7l-19.1,33.7c-0.5,0.8-1.3,1.3-2.3,1.3h-38.2
		C730,608.8,729.1,608.3,728.6,607.4z"/>
</g>
<g>
	<path fill="#4B2C86" d="M491.9,469.4L462.9,419c-0.7-1.2-0.7-2.8,0-4l29.1-50.4c0.7-1.2,2-2,3.5-2h58.2c1.4,0,2.7,0.8,3.5,2
		l29.1,50.4c0.7,1.2,0.7,2.8,0,4l-29.1,50.4c-0.7,1.2-2,2-3.5,2h-58.2C494,471.4,492.7,470.6,491.9,469.4z"/>
	<path fill="#488FCC" d="M642.9,469.4L613.9,419c-0.7-1.2-0.7-2.8,0-4l29.1-50.4c0.7-1.2,2-2,3.5-2h58.2c1.4,0,2.7,0.8,3.5,2
		l29.1,50.4c0.7,1.2,0.7,2.8,0,4l-29.1,50.4c-0.7,1.2-2,2-3.5,2h-58.2C645,471.4,643.7,470.6,642.9,469.4z"/>
	<path fill="#4B2C86" d="M642.9,630.4L613.9,580c-0.7-1.2-0.7-2.8,0-4l29.1-50.4c0.7-1.2,2-2,3.5-2h58.2c1.4,0,2.7,0.8,3.5,2
		l29.1,50.4c0.7,1.2,0.7,2.8,0,4l-29.1,50.4c-0.7,1.2-2,2-3.5,2h-58.2C645,632.4,643.7,631.6,642.9,630.4z"/>
	<path fill="#4B2C86" d="M579,532.4l-19.1-33.7c-0.5-0.8-0.5-1.8,0-2.7l19.1-33.7c0.5-0.8,1.3-1.3,2.3-1.3h38.2
		c0.9,0,1.8,0.5,2.3,1.3l19.1,33.7c0.5,0.8,0.5,1.8,0,2.7l-19.1,33.7c-0.5,0.8-1.3,1.3-2.3,1.3h-38.2
		C580.4,533.8,579.5,533.3,579,532.4z"/>
	<path fill="#488FCC" d="M428.6,532.4l-19.1-33.7c-0.5-0.8-0.5-1.8,0-2.7l19.1-33.7c0.5-0.8,1.3-1.3,2.3-1.3h38.2
		c0.9,0,1.8,0.5,2.3,1.3l19.1,33.7c0.5,0.8,0.5,1.8,0,2.7l-19.1,33.7c-0.5,0.8-1.3,1.3-2.3,1.3h-38.2
		C430,533.8,429.1,533.3,428.6,532.4z"/>
	<path fill="#4B2C86" d="M579,377l-19.1-33.7c-0.5-0.8-0.5-1.8,0-2.7L579,307c0.5-0.8,1.3-1.3,2.3-1.3h38.2c0.9,0,1.8,0.5,2.3,1.3
		l19.1,33.7c0.5,0.8,0.5,1.8,0,2.7L621.8,377c-0.5,0.8-1.3,1.3-2.3,1.3h-38.2C580.4,378.4,579.5,377.9,579,377z"/>
	<path fill="#488FCC" d="M728.6,527l-19.1-33.7c-0.5-0.8-0.5-1.8,0-2.7l19.1-33.7c0.5-0.8,1.3-1.3,2.3-1.3h38.2
		c0.9,0,1.8,0.5,2.3,1.3l19.1,33.7c0.5,0.8,0.5,1.8,0,2.7L771.4,527c-0.5,0.8-1.3,1.3-2.3,1.3h-38.2
		C730,528.4,729.1,527.9,728.6,527z"/>
	<path fill="#488FCC" d="M491.9,630.4L462.9,580c-0.7-1.2-0.7-2.8,0-4l29.1-50.4c0.7-1.2,2-2,3.5-2h58.2c1.4,0,2.7,0.8,3.5,2
		l29.1,50.4c0.7,1.2,0.7,2.8,0,4l-29.1,50.4c-0.7,1.2-2,2-3.5,2h-58.2C494,632.4,492.7,631.6,491.9,630.4z"/>
</g>
<g>
	<path fill="#4B2C86" d="M191.9,394.4L162.9,344c-0.7-1.2-0.7-2.8,0-4l29.1-50.4c0.7-1.2,2-2,3.5-2h58.2c1.4,0,2.7,0.8,3.5,2
		l29.1,50.4c0.7,1.2,0.7,2.8,0,4l-29.1,50.4c-0.7,1.2-2,2-3.5,2h-58.2C194,396.4,192.7,395.6,191.9,394.4z"/>
	<path fill="#488FCC" d="M342.9,394.4L313.9,344c-0.7-1.2-0.7-2.8,0-4l29.1-50.4c0.7-1.2,2-2,3.5-2h58.2c1.4,0,2.7,0.8,3.5,2
		l29.1,50.4c0.7,1.2,0.7,2.8,0,4l-29.1,50.4c-0.7,1.2-2,2-3.5,2h-58.2C345,396.4,343.7,395.6,342.9,394.4z"/>
	<path fill="#4B2C86" d="M342.9,555.4L313.9,505c-0.7-1.2-0.7-2.8,0-4l29.1-50.4c0.7-1.2,2-2,3.5-2h58.2c1.4,0,2.7,0.8,3.5,2
		l29.1,50.4c0.7,1.2,0.7,2.8,0,4l-29.1,50.4c-0.7,1.2-2,2-3.5,2h-58.2C345,557.4,343.7,556.6,342.9,555.4z"/>
	<path fill="#4B2C86" d="M279,457.4l-19.1-33.7c-0.5-0.8-0.5-1.8,0-2.7l19.1-33.7c0.5-0.8,1.3-1.3,2.3-1.3h38.2
		c0.9,0,1.8,0.5,2.3,1.3l19.1,33.7c0.5,0.8,0.5,1.8,0,2.7l-19.1,33.7c-0.5,0.8-1.3,1.3-2.3,1.3h-38.2
		C280.4,458.8,279.5,458.3,279,457.4z"/>
	<path fill="#488FCC" d="M128.6,457.4l-19.1-33.7c-0.5-0.8-0.5-1.8,0-2.7l19.1-33.7c0.5-0.8,1.3-1.3,2.3-1.3h38.2
		c0.9,0,1.8,0.5,2.3,1.3l19.1,33.7c0.5,0.8,0.5,1.8,0,2.7l-19.1,33.7c-0.5,0.8-1.3,1.3-2.3,1.3h-38.2
		C130,458.8,129.1,458.3,128.6,457.4z"/>
	<path fill="#4B2C86" d="M279,302l-19.1-33.7c-0.5-0.8-0.5-1.8,0-2.7L279,232c0.5-0.8,1.3-1.3,2.3-1.3h38.2c0.9,0,1.8,0.5,2.3,1.3
		l19.1,33.7c0.5,0.8,0.5,1.8,0,2.7L321.8,302c-0.5,0.8-1.3,1.3-2.3,1.3h-38.2C280.4,303.4,279.5,302.9,279,302z"/>
	<path fill="#488FCC" d="M428.6,452l-19.1-33.7c-0.5-0.8-0.5-1.8,0-2.7l19.1-33.7c0.5-0.8,1.3-1.3,2.3-1.3h38.2
		c0.9,0,1.8,0.5,2.3,1.3l19.1,33.7c0.5,0.8,0.5,1.8,0,2.7L471.4,452c-0.5,0.8-1.3,1.3-2.3,1.3h-38.2
		C430,453.4,429.1,452.9,428.6,452z"/>
	<path fill="#488FCC" d="M191.9,555.4L162.9,505c-0.7-1.2-0.7-2.8,0-4l29.1-50.4c0.7-1.2,2-2,3.5-2h58.2c1.4,0,2.7,0.8,3.5,2
		l29.1,50.4c0.7,1.2,0.7,2.8,0,4l-29.1,50.4c-0.7,1.2-2,2-3.5,2h-58.2C194,557.4,192.7,556.6,191.9,555.4z"/>
</g>
<g>
	<path fill="#488FCC" d="M42.9,319.4L13.9,269c-0.7-1.2-0.7-2.8,0-4l29.1-50.4c0.7-1.2,2-2,3.5-2h58.2c1.4,0,2.7,0.8,3.5,2
		l29.1,50.4c0.7,1.2,0.7,2.8,0,4l-29.1,50.4c-0.7,1.2-2,2-3.5,2H46.4C45,321.4,43.7,320.6,42.9,319.4z"/>
	<path fill="#4B2C86" d="M42.9,480.4L13.9,430c-0.7-1.2-0.7-2.8,0-4l29.1-50.4c0.7-1.2,2-2,3.5-2h58.2c1.4,0,2.7,0.8,3.5,2
		l29.1,50.4c0.7,1.2,0.7,2.8,0,4l-29.1,50.4c-0.7,1.2-2,2-3.5,2H46.4C45,482.4,43.7,481.6,42.9,480.4z"/>
	<path fill="#4B2C86" d="M-21,382.4l-19.1-33.7c-0.5-0.8-0.5-1.8,0-2.7l19.1-33.7c0.5-0.8,1.3-1.3,2.3-1.3h38.2
		c0.9,0,1.8,0.5,2.3,1.3L40.9,346c0.5,0.8,0.5,1.8,0,2.7l-19.1,33.7c-0.5,0.8-1.3,1.3-2.3,1.3h-38.2
		C-19.6,383.8-20.5,383.3-21,382.4z"/>
	<path fill="#4B2C86" d="M-21,227l-19.1-33.7c-0.5-0.8-0.5-1.8,0-2.7L-21,157c0.5-0.8,1.3-1.3,2.3-1.3h38.2c0.9,0,1.8,0.5,2.3,1.3
		l19.1,33.7c0.5,0.8,0.5,1.8,0,2.7L21.8,227c-0.5,0.8-1.3,1.3-2.3,1.3h-38.2C-19.6,228.4-20.5,227.9-21,227z"/>
	<path fill="#488FCC" d="M128.6,377l-19.1-33.7c-0.5-0.8-0.5-1.8,0-2.7l19.1-33.7c0.5-0.8,1.3-1.3,2.3-1.3h38.2
		c0.9,0,1.8,0.5,2.3,1.3l19.1,33.7c0.5,0.8,0.5,1.8,0,2.7L171.4,377c-0.5,0.8-1.3,1.3-2.3,1.3h-38.2
		C130,378.4,129.1,377.9,128.6,377z"/>
</g>
<g>
	<path fill="#488FCC" d="M728.6,307.4l-19.1-33.7c-0.5-0.8-0.5-1.8,0-2.7l19.1-33.7c0.5-0.8,1.3-1.3,2.3-1.3h38.2
		c0.9,0,1.8,0.5,2.3,1.3l19.1,33.7c0.5,0.8,0.5,1.8,0,2.7l-19.1,33.7c-0.5,0.8-1.3,1.3-2.3,1.3h-38.2
		C730,308.8,729.1,308.3,728.6,307.4z"/>
</g>
<g>
	<path fill="#4B2C86" d="M491.9,169.4L462.9,119c-0.7-1.2-0.7-2.8,0-4l29.1-50.4c0.7-1.2,2-2,3.5-2h58.2c1.4,0,2.7,0.8,3.5,2
		l29.1,50.4c0.7,1.2,0.7,2.8,0,4l-29.1,50.4c-0.7,1.2-2,2-3.5,2h-58.2C494,171.4,492.7,170.6,491.9,169.4z"/>
	<path fill="#488FCC" d="M642.9,169.4L613.9,119c-0.7-1.2-0.7-2.8,0-4l29.1-50.4c0.7-1.2,2-2,3.5-2h58.2c1.4,0,2.7,0.8,3.5,2
		l29.1,50.4c0.7,1.2,0.7,2.8,0,4l-29.1,50.4c-0.7,1.2-2,2-3.5,2h-58.2C645,171.4,643.7,170.6,642.9,169.4z"/>
	<path fill="#4B2C86" d="M642.9,330.4L613.9,280c-0.7-1.2-0.7-2.8,0-4l29.1-50.4c0.7-1.2,2-2,3.5-2h58.2c1.4,0,2.7,0.8,3.5,2
		l29.1,50.4c0.7,1.2,0.7,2.8,0,4l-29.1,50.4c-0.7,1.2-2,2-3.5,2h-58.2C645,332.4,643.7,331.6,642.9,330.4z"/>
	<path fill="#4B2C86" d="M579,232.4l-19.1-33.7c-0.5-0.8-0.5-1.8,0-2.7l19.1-33.7c0.5-0.8,1.3-1.3,2.3-1.3h38.2
		c0.9,0,1.8,0.5,2.3,1.3l19.1,33.7c0.5,0.8,0.5,1.8,0,2.7l-19.1,33.7c-0.5,0.8-1.3,1.3-2.3,1.3h-38.2
		C580.4,233.8,579.5,233.3,579,232.4z"/>
	<path fill="#488FCC" d="M428.6,232.4l-19.1-33.7c-0.5-0.8-0.5-1.8,0-2.7l19.1-33.7c0.5-0.8,1.3-1.3,2.3-1.3h38.2
		c0.9,0,1.8,0.5,2.3,1.3l19.1,33.7c0.5,0.8,0.5,1.8,0,2.7l-19.1,33.7c-0.5,0.8-1.3,1.3-2.3,1.3h-38.2
		C430,233.8,429.1,233.3,428.6,232.4z"/>
	<path fill="#4B2C86" d="M579,77l-19.1-33.7c-0.5-0.8-0.5-1.8,0-2.7L579,7c0.5-0.8,1.3-1.3,2.3-1.3h38.2c0.9,0,1.8,0.5,2.3,1.3
		l19.1,33.7c0.5,0.8,0.5,1.8,0,2.7L621.8,77c-0.5,0.8-1.3,1.3-2.3,1.3h-38.2C580.4,78.4,579.5,77.9,579,77z"/>
	<path fill="#488FCC" d="M728.6,227l-19.1-33.7c-0.5-0.8-0.5-1.8,0-2.7l19.1-33.7c0.5-0.8,1.3-1.3,2.3-1.3h38.2
		c0.9,0,1.8,0.5,2.3,1.3l19.1,33.7c0.5,0.8,0.5,1.8,0,2.7L771.4,227c-0.5,0.8-1.3,1.3-2.3,1.3h-38.2
		C730,228.4,729.1,227.9,728.6,227z"/>
	<path fill="#488FCC" d="M491.9,330.4L462.9,280c-0.7-1.2-0.7-2.8,0-4l29.1-50.4c0.7-1.2,2-2,3.5-2h58.2c1.4,0,2.7,0.8,3.5,2
		l29.1,50.4c0.7,1.2,0.7,2.8,0,4l-29.1,50.4c-0.7,1.2-2,2-3.5,2h-58.2C494,332.4,492.7,331.6,491.9,330.4z"/>
</g>
<g>
	<path fill="#4B2C86" d="M191.9,94.4L162.9,44c-0.7-1.2-0.7-2.8,0-4l29.1-50.4c0.7-1.2,2-2,3.5-2h58.2c1.4,0,2.7,0.8,3.5,2L286.1,40
		c0.7,1.2,0.7,2.8,0,4l-29.1,50.4c-0.7,1.2-2,2-3.5,2h-58.2C194,96.4,192.7,95.6,191.9,94.4z"/>
	<path fill="#488FCC" d="M342.9,94.4L313.9,44c-0.7-1.2-0.7-2.8,0-4l29.1-50.4c0.7-1.2,2-2,3.5-2h58.2c1.4,0,2.7,0.8,3.5,2L437.1,40
		c0.7,1.2,0.7,2.8,0,4l-29.1,50.4c-0.7,1.2-2,2-3.5,2h-58.2C345,96.4,343.7,95.6,342.9,94.4z"/>
	<path fill="#4B2C86" d="M342.9,255.4L313.9,205c-0.7-1.2-0.7-2.8,0-4l29.1-50.4c0.7-1.2,2-2,3.5-2h58.2c1.4,0,2.7,0.8,3.5,2
		l29.1,50.4c0.7,1.2,0.7,2.8,0,4l-29.1,50.4c-0.7,1.2-2,2-3.5,2h-58.2C345,257.4,343.7,256.6,342.9,255.4z"/>
	<path fill="#4B2C86" d="M279,157.4l-19.1-33.7c-0.5-0.8-0.5-1.8,0-2.7L279,87.3c0.5-0.8,1.3-1.3,2.3-1.3h38.2
		c0.9,0,1.8,0.5,2.3,1.3l19.1,33.7c0.5,0.8,0.5,1.8,0,2.7l-19.1,33.7c-0.5,0.8-1.3,1.3-2.3,1.3h-38.2
		C280.4,158.8,279.5,158.3,279,157.4z"/>
	<path fill="#488FCC" d="M128.6,157.4l-19.1-33.7c-0.5-0.8-0.5-1.8,0-2.7l19.1-33.7c0.5-0.8,1.3-1.3,2.3-1.3h38.2
		c0.9,0,1.8,0.5,2.3,1.3l19.1,33.7c0.5,0.8,0.5,1.8,0,2.7l-19.1,33.7c-0.5,0.8-1.3,1.3-2.3,1.3h-38.2
		C130,158.8,129.1,158.3,128.6,157.4z"/>
	<path fill="#4B2C86" d="M279,2l-19.1-33.7c-0.5-0.8-0.5-1.8,0-2.7L279-68c0.5-0.8,1.3-1.3,2.3-1.3h38.2c0.9,0,1.8,0.5,2.3,1.3
		l19.1,33.7c0.5,0.8,0.5,1.8,0,2.7L321.8,2c-0.5,0.8-1.3,1.3-2.3,1.3h-38.2C280.4,3.4,279.5,2.9,279,2z"/>
	<path fill="#488FCC" d="M428.6,152l-19.1-33.7c-0.5-0.8-0.5-1.8,0-2.7L428.6,82c0.5-0.8,1.3-1.3,2.3-1.3h38.2
		c0.9,0,1.8,0.5,2.3,1.3l19.1,33.7c0.5,0.8,0.5,1.8,0,2.7L471.4,152c-0.5,0.8-1.3,1.3-2.3,1.3h-38.2
		C430,153.4,429.1,152.9,428.6,152z"/>
	<path fill="#488FCC" d="M191.9,255.4L162.9,205c-0.7-1.2-0.7-2.8,0-4l29.1-50.4c0.7-1.2,2-2,3.5-2h58.2c1.4,0,2.7,0.8,3.5,2
		l29.1,50.4c0.7,1.2,0.7,2.8,0,4l-29.1,50.4c-0.7,1.2-2,2-3.5,2h-58.2C194,257.4,192.7,256.6,191.9,255.4z"/>
</g>
<g>
	<path fill="#488FCC" d="M42.9,19.4L13.9-31c-0.7-1.2-0.7-2.8,0-4l29.1-50.4c0.7-1.2,2-2,3.5-2h58.2c1.4,0,2.7,0.8,3.5,2L137.1-35
		c0.7,1.2,0.7,2.8,0,4l-29.1,50.4c-0.7,1.2-2,2-3.5,2H46.4C45,21.4,43.7,20.6,42.9,19.4z"/>
	<path fill="#4B2C86" d="M42.9,180.4L13.9,130c-0.7-1.2-0.7-2.8,0-4l29.1-50.4c0.7-1.2,2-2,3.5-2h58.2c1.4,0,2.7,0.8,3.5,2
		l29.1,50.4c0.7,1.2,0.7,2.8,0,4l-29.1,50.4c-0.7,1.2-2,2-3.5,2H46.4C45,182.4,43.7,181.6,42.9,180.4z"/>
	<path fill="#4B2C86" d="M-21,82.4l-19.1-33.7c-0.5-0.8-0.5-1.8,0-2.7L-21,12.3c0.5-0.8,1.3-1.3,2.3-1.3h38.2c0.9,0,1.8,0.5,2.3,1.3
		L40.9,46c0.5,0.8,0.5,1.8,0,2.7L21.8,82.4c-0.5,0.8-1.3,1.3-2.3,1.3h-38.2C-19.6,83.8-20.5,83.3-21,82.4z"/>
	<path fill="#4B2C86" d="M-21-73l-19.1-33.7c-0.5-0.8-0.5-1.8,0-2.7L-21-143c0.5-0.8,1.3-1.3,2.3-1.3h38.2c0.9,0,1.8,0.5,2.3,1.3
		l19.1,33.7c0.5,0.8,0.5,1.8,0,2.7L21.8-73c-0.5,0.8-1.3,1.3-2.3,1.3h-38.2C-19.6-71.6-20.5-72.1-21-73z"/>
	<path fill="#488FCC" d="M128.6,77l-19.1-33.7c-0.5-0.8-0.5-1.8,0-2.7L128.6,7c0.5-0.8,1.3-1.3,2.3-1.3h38.2c0.9,0,1.8,0.5,2.3,1.3
		l19.1,33.7c0.5,0.8,0.5,1.8,0,2.7L171.4,77c-0.5,0.8-1.3,1.3-2.3,1.3h-38.2C130,78.4,129.1,77.9,128.6,77z"/>
</g>
<g>
	<path fill="#488FCC" d="M728.6,7.4l-19.1-33.7c-0.5-0.8-0.5-1.8,0-2.7l19.1-33.7c0.5-0.8,1.3-1.3,2.3-1.3h38.2
		c0.9,0,1.8,0.5,2.3,1.3L790.5-29c0.5,0.8,0.5,1.8,0,2.7L771.4,7.4c-0.5,0.8-1.3,1.3-2.3,1.3h-38.2C730,8.8,729.1,8.3,728.6,7.4z"/>
</g>
<g>
	<path fill="#4B2C86" d="M491.9-130.6L462.9-181c-0.7-1.2-0.7-2.8,0-4l29.1-50.4c0.7-1.2,2-2,3.5-2h58.2c1.4,0,2.7,0.8,3.5,2
		l29.1,50.4c0.7,1.2,0.7,2.8,0,4l-29.1,50.4c-0.7,1.2-2,2-3.5,2h-58.2C494-128.6,492.7-129.4,491.9-130.6z"/>
	<path fill="#488FCC" d="M642.9-130.6L613.9-181c-0.7-1.2-0.7-2.8,0-4l29.1-50.4c0.7-1.2,2-2,3.5-2h58.2c1.4,0,2.7,0.8,3.5,2
		l29.1,50.4c0.7,1.2,0.7,2.8,0,4l-29.1,50.4c-0.7,1.2-2,2-3.5,2h-58.2C645-128.6,643.7-129.4,642.9-130.6z"/>
	<path fill="#4B2C86" d="M642.9,30.4L613.9-20c-0.7-1.2-0.7-2.8,0-4l29.1-50.4c0.7-1.2,2-2,3.5-2h58.2c1.4,0,2.7,0.8,3.5,2L737.1-24
		c0.7,1.2,0.7,2.8,0,4l-29.1,50.4c-0.7,1.2-2,2-3.5,2h-58.2C645,32.4,643.7,31.6,642.9,30.4z"/>
	<path fill="#4B2C86" d="M579-67.6l-19.1-33.7c-0.5-0.8-0.5-1.8,0-2.7l19.1-33.7c0.5-0.8,1.3-1.3,2.3-1.3h38.2
		c0.9,0,1.8,0.5,2.3,1.3l19.1,33.7c0.5,0.8,0.5,1.8,0,2.7l-19.1,33.7c-0.5,0.8-1.3,1.3-2.3,1.3h-38.2
		C580.4-66.2,579.5-66.7,579-67.6z"/>
	<path fill="#488FCC" d="M428.6-67.6l-19.1-33.7c-0.5-0.8-0.5-1.8,0-2.7l19.1-33.7c0.5-0.8,1.3-1.3,2.3-1.3h38.2
		c0.9,0,1.8,0.5,2.3,1.3l19.1,33.7c0.5,0.8,0.5,1.8,0,2.7l-19.1,33.7c-0.5,0.8-1.3,1.3-2.3,1.3h-38.2
		C430-66.2,429.1-66.7,428.6-67.6z"/>
	<path fill="#488FCC" d="M728.6-73l-19.1-33.7c-0.5-0.8-0.5-1.8,0-2.7l19.1-33.7c0.5-0.8,1.3-1.3,2.3-1.3h38.2
		c0.9,0,1.8,0.5,2.3,1.3l19.1,33.7c0.5,0.8,0.5,1.8,0,2.7L771.4-73c-0.5,0.8-1.3,1.3-2.3,1.3h-38.2C730-71.6,729.1-72.1,728.6-73z"
		/>
	<path fill="#488FCC" d="M491.9,30.4L462.9-20c-0.7-1.2-0.7-2.8,0-4l29.1-50.4c0.7-1.2,2-2,3.5-2h58.2c1.4,0,2.7,0.8,3.5,2L586.1-24
		c0.7,1.2,0.7,2.8,0,4l-29.1,50.4c-0.7,1.2-2,2-3.5,2h-58.2C494,32.4,492.7,31.6,491.9,30.4z"/>
</g>
<g>
	<path fill="#4B2C86" d="M191.9-205.6L162.9-256c-0.7-1.2-0.7-2.8,0-4l29.1-50.4c0.7-1.2,2-2,3.5-2h58.2c1.4,0,2.7,0.8,3.5,2
		l29.1,50.4c0.7,1.2,0.7,2.8,0,4l-29.1,50.4c-0.7,1.2-2,2-3.5,2h-58.2C194-203.6,192.7-204.4,191.9-205.6z"/>
	<path fill="#488FCC" d="M342.9-205.6L313.9-256c-0.7-1.2-0.7-2.8,0-4l29.1-50.4c0.7-1.2,2-2,3.5-2h58.2c1.4,0,2.7,0.8,3.5,2
		l29.1,50.4c0.7,1.2,0.7,2.8,0,4l-29.1,50.4c-0.7,1.2-2,2-3.5,2h-58.2C345-203.6,343.7-204.4,342.9-205.6z"/>
	<path fill="#4B2C86" d="M342.9-44.6L313.9-95c-0.7-1.2-0.7-2.8,0-4l29.1-50.4c0.7-1.2,2-2,3.5-2h58.2c1.4,0,2.7,0.8,3.5,2L437.1-99
		c0.7,1.2,0.7,2.8,0,4l-29.1,50.4c-0.7,1.2-2,2-3.5,2h-58.2C345-42.6,343.7-43.4,342.9-44.6z"/>
	<path fill="#4B2C86" d="M279-142.6l-19.1-33.7c-0.5-0.8-0.5-1.8,0-2.7l19.1-33.7c0.5-0.8,1.3-1.3,2.3-1.3h38.2
		c0.9,0,1.8,0.5,2.3,1.3l19.1,33.7c0.5,0.8,0.5,1.8,0,2.7l-19.1,33.7c-0.5,0.8-1.3,1.3-2.3,1.3h-38.2
		C280.4-141.2,279.5-141.7,279-142.6z"/>
	<path fill="#488FCC" d="M128.6-142.6l-19.1-33.7c-0.5-0.8-0.5-1.8,0-2.7l19.1-33.7c0.5-0.8,1.3-1.3,2.3-1.3h38.2
		c0.9,0,1.8,0.5,2.3,1.3l19.1,33.7c0.5,0.8,0.5,1.8,0,2.7l-19.1,33.7c-0.5,0.8-1.3,1.3-2.3,1.3h-38.2
		C130-141.2,129.1-141.7,128.6-142.6z"/>
	<path fill="#488FCC" d="M428.6-148l-19.1-33.7c-0.5-0.8-0.5-1.8,0-2.7l19.1-33.7c0.5-0.8,1.3-1.3,2.3-1.3h38.2
		c0.9,0,1.8,0.5,2.3,1.3l19.1,33.7c0.5,0.8,0.5,1.8,0,2.7L471.4-148c-0.5,0.8-1.3,1.3-2.3,1.3h-38.2
		C430-146.6,429.1-147.1,428.6-148z"/>
	<path fill="#488FCC" d="M191.9-44.6L162.9-95c-0.7-1.2-0.7-2.8,0-4l29.1-50.4c0.7-1.2,2-2,3.5-2h58.2c1.4,0,2.7,0.8,3.5,2L286.1-99
		c0.7,1.2,0.7,2.8,0,4l-29.1,50.4c-0.7,1.2-2,2-3.5,2h-58.2C194-42.6,192.7-43.4,191.9-44.6z"/>
</g>
<g>
	<path fill="#4B2C86" d="M42.9-119.6L13.9-170c-0.7-1.2-0.7-2.8,0-4l29.1-50.4c0.7-1.2,2-2,3.5-2h58.2c1.4,0,2.7,0.8,3.5,2
		l29.1,50.4c0.7,1.2,0.7,2.8,0,4l-29.1,50.4c-0.7,1.2-2,2-3.5,2H46.4C45-117.6,43.7-118.4,42.9-119.6z"/>
</g>
<g>
	<path fill="#4B2C86" d="M491.9,1369.4l-29.1-50.4c-0.7-1.2-0.7-2.8,0-4l29.1-50.4c0.7-1.2,2-2,3.5-2h58.2c1.4,0,2.7,0.8,3.5,2
		l29.1,50.4c0.7,1.2,0.7,2.8,0,4l-29.1,50.4c-0.7,1.2-2,2-3.5,2h-58.2C494,1371.4,492.7,1370.6,491.9,1369.4z"/>
	<path fill="#488FCC" d="M642.9,1369.4l-29.1-50.4c-0.7-1.2-0.7-2.8,0-4l29.1-50.4c0.7-1.2,2-2,3.5-2h58.2c1.4,0,2.7,0.8,3.5,2
		l29.1,50.4c0.7,1.2,0.7,2.8,0,4l-29.1,50.4c-0.7,1.2-2,2-3.5,2h-58.2C645,1371.4,643.7,1370.6,642.9,1369.4z"/>
	<path fill="#4B2C86" d="M579,1277l-19.1-33.7c-0.5-0.8-0.5-1.8,0-2.7L579,1207c0.5-0.8,1.3-1.3,2.3-1.3h38.2c0.9,0,1.8,0.5,2.3,1.3
		l19.1,33.7c0.5,0.8,0.5,1.8,0,2.7l-19.1,33.7c-0.5,0.8-1.3,1.3-2.3,1.3h-38.2C580.4,1278.4,579.5,1277.9,579,1277z"/>
</g>
<g>
	<path fill="#4B2C86" d="M191.9,1294.4l-29.1-50.4c-0.7-1.2-0.7-2.8,0-4l29.1-50.4c0.7-1.2,2-2,3.5-2h58.2c1.4,0,2.7,0.8,3.5,2
		l29.1,50.4c0.7,1.2,0.7,2.8,0,4l-29.1,50.4c-0.7,1.2-2,2-3.5,2h-58.2C194,1296.4,192.7,1295.6,191.9,1294.4z"/>
	<path fill="#488FCC" d="M342.9,1294.4l-29.1-50.4c-0.7-1.2-0.7-2.8,0-4l29.1-50.4c0.7-1.2,2-2,3.5-2h58.2c1.4,0,2.7,0.8,3.5,2
		l29.1,50.4c0.7,1.2,0.7,2.8,0,4l-29.1,50.4c-0.7,1.2-2,2-3.5,2h-58.2C345,1296.4,343.7,1295.6,342.9,1294.4z"/>
	<path fill="#4B2C86" d="M279,1202l-19.1-33.7c-0.5-0.8-0.5-1.8,0-2.7L279,1132c0.5-0.8,1.3-1.3,2.3-1.3h38.2c0.9,0,1.8,0.5,2.3,1.3
		l19.1,33.7c0.5,0.8,0.5,1.8,0,2.7l-19.1,33.7c-0.5,0.8-1.3,1.3-2.3,1.3h-38.2C280.4,1203.4,279.5,1202.9,279,1202z"/>
	<path fill="#488FCC" d="M428.6,1352l-19.1-33.7c-0.5-0.8-0.5-1.8,0-2.7l19.1-33.7c0.5-0.8,1.3-1.3,2.3-1.3h38.2
		c0.9,0,1.8,0.5,2.3,1.3l19.1,33.7c0.5,0.8,0.5,1.8,0,2.7l-19.1,33.7c-0.5,0.8-1.3,1.3-2.3,1.3h-38.2
		C430,1353.4,429.1,1352.9,428.6,1352z"/>
</g>
<g>
	<path fill="#488FCC" d="M42.9,1219.4L13.9,1169c-0.7-1.2-0.7-2.8,0-4l29.1-50.4c0.7-1.2,2-2,3.5-2h58.2c1.4,0,2.7,0.8,3.5,2
		l29.1,50.4c0.7,1.2,0.7,2.8,0,4l-29.1,50.4c-0.7,1.2-2,2-3.5,2H46.4C45,1221.4,43.7,1220.6,42.9,1219.4z"/>
	<path fill="#4B2C86" d="M42.9,1380.4L13.9,1330c-0.7-1.2-0.7-2.8,0-4l29.1-50.4c0.7-1.2,2-2,3.5-2h58.2c1.4,0,2.7,0.8,3.5,2
		l29.1,50.4c0.7,1.2,0.7,2.8,0,4l-29.1,50.4c-0.7,1.2-2,2-3.5,2H46.4C45,1382.4,43.7,1381.6,42.9,1380.4z"/>
	<path fill="#4B2C86" d="M-21,1282.4l-19.1-33.7c-0.5-0.8-0.5-1.8,0-2.7l19.1-33.7c0.5-0.8,1.3-1.3,2.3-1.3h38.2
		c0.9,0,1.8,0.5,2.3,1.3l19.1,33.7c0.5,0.8,0.5,1.8,0,2.7l-19.1,33.7c-0.5,0.8-1.3,1.3-2.3,1.3h-38.2
		C-19.6,1283.8-20.5,1283.3-21,1282.4z"/>
	<path fill="#4B2C86" d="M-21,1127l-19.1-33.7c-0.5-0.8-0.5-1.8,0-2.7L-21,1057c0.5-0.8,1.3-1.3,2.3-1.3h38.2c0.9,0,1.8,0.5,2.3,1.3
		l19.1,33.7c0.5,0.8,0.5,1.8,0,2.7L21.8,1127c-0.5,0.8-1.3,1.3-2.3,1.3h-38.2C-19.6,1128.4-20.5,1127.9-21,1127z"/>
	<path fill="#488FCC" d="M128.6,1277l-19.1-33.7c-0.5-0.8-0.5-1.8,0-2.7l19.1-33.7c0.5-0.8,1.3-1.3,2.3-1.3h38.2
		c0.9,0,1.8,0.5,2.3,1.3l19.1,33.7c0.5,0.8,0.5,1.8,0,2.7l-19.1,33.7c-0.5,0.8-1.3,1.3-2.3,1.3h-38.2
		C130,1278.4,129.1,1277.9,128.6,1277z"/>
</g>
<g>
	<path fill="#488FCC" d="M728.6,1207.4l-19.1-33.7c-0.5-0.8-0.5-1.8,0-2.7l19.1-33.7c0.5-0.8,1.3-1.3,2.3-1.3h38.2
		c0.9,0,1.8,0.5,2.3,1.3l19.1,33.7c0.5,0.8,0.5,1.8,0,2.7l-19.1,33.7c-0.5,0.8-1.3,1.3-2.3,1.3h-38.2
		C730,1208.8,729.1,1208.3,728.6,1207.4z"/>
</g>
<g>
	<path fill="#4B2C86" d="M491.9,1069.4l-29.1-50.4c-0.7-1.2-0.7-2.8,0-4l29.1-50.4c0.7-1.2,2-2,3.5-2h58.2c1.4,0,2.7,0.8,3.5,2
		l29.1,50.4c0.7,1.2,0.7,2.8,0,4l-29.1,50.4c-0.7,1.2-2,2-3.5,2h-58.2C494,1071.4,492.7,1070.6,491.9,1069.4z"/>
	<path fill="#488FCC" d="M642.9,1069.4l-29.1-50.4c-0.7-1.2-0.7-2.8,0-4l29.1-50.4c0.7-1.2,2-2,3.5-2h58.2c1.4,0,2.7,0.8,3.5,2
		l29.1,50.4c0.7,1.2,0.7,2.8,0,4l-29.1,50.4c-0.7,1.2-2,2-3.5,2h-58.2C645,1071.4,643.7,1070.6,642.9,1069.4z"/>
	<path fill="#4B2C86" d="M642.9,1230.4l-29.1-50.4c-0.7-1.2-0.7-2.8,0-4l29.1-50.4c0.7-1.2,2-2,3.5-2h58.2c1.4,0,2.7,0.8,3.5,2
		l29.1,50.4c0.7,1.2,0.7,2.8,0,4l-29.1,50.4c-0.7,1.2-2,2-3.5,2h-58.2C645,1232.4,643.7,1231.6,642.9,1230.4z"/>
	<path fill="#4B2C86" d="M579,1132.4l-19.1-33.7c-0.5-0.8-0.5-1.8,0-2.7l19.1-33.7c0.5-0.8,1.3-1.3,2.3-1.3h38.2
		c0.9,0,1.8,0.5,2.3,1.3l19.1,33.7c0.5,0.8,0.5,1.8,0,2.7l-19.1,33.7c-0.5,0.8-1.3,1.3-2.3,1.3h-38.2
		C580.4,1133.8,579.5,1133.3,579,1132.4z"/>
	<path fill="#488FCC" d="M428.6,1132.4l-19.1-33.7c-0.5-0.8-0.5-1.8,0-2.7l19.1-33.7c0.5-0.8,1.3-1.3,2.3-1.3h38.2
		c0.9,0,1.8,0.5,2.3,1.3l19.1,33.7c0.5,0.8,0.5,1.8,0,2.7l-19.1,33.7c-0.5,0.8-1.3,1.3-2.3,1.3h-38.2
		C430,1133.8,429.1,1133.3,428.6,1132.4z"/>
	<path fill="#4B2C86" d="M579,977l-19.1-33.7c-0.5-0.8-0.5-1.8,0-2.7L579,907c0.5-0.8,1.3-1.3,2.3-1.3h38.2c0.9,0,1.8,0.5,2.3,1.3
		l19.1,33.7c0.5,0.8,0.5,1.8,0,2.7L621.8,977c-0.5,0.8-1.3,1.3-2.3,1.3h-38.2C580.4,978.4,579.5,977.9,579,977z"/>
	<path fill="#488FCC" d="M728.6,1127l-19.1-33.7c-0.5-0.8-0.5-1.8,0-2.7l19.1-33.7c0.5-0.8,1.3-1.3,2.3-1.3h38.2
		c0.9,0,1.8,0.5,2.3,1.3l19.1,33.7c0.5,0.8,0.5,1.8,0,2.7l-19.1,33.7c-0.5,0.8-1.3,1.3-2.3,1.3h-38.2
		C730,1128.4,729.1,1127.9,728.6,1127z"/>
	<path fill="#488FCC" d="M491.9,1230.4l-29.1-50.4c-0.7-1.2-0.7-2.8,0-4l29.1-50.4c0.7-1.2,2-2,3.5-2h58.2c1.4,0,2.7,0.8,3.5,2
		l29.1,50.4c0.7,1.2,0.7,2.8,0,4l-29.1,50.4c-0.7,1.2-2,2-3.5,2h-58.2C494,1232.4,492.7,1231.6,491.9,1230.4z"/>
</g>
<g>
	<path fill="#4B2C86" d="M191.9,994.4L162.9,944c-0.7-1.2-0.7-2.8,0-4l29.1-50.4c0.7-1.2,2-2,3.5-2h58.2c1.4,0,2.7,0.8,3.5,2
		l29.1,50.4c0.7,1.2,0.7,2.8,0,4l-29.1,50.4c-0.7,1.2-2,2-3.5,2h-58.2C194,996.4,192.7,995.6,191.9,994.4z"/>
	<path fill="#488FCC" d="M342.9,994.4L313.9,944c-0.7-1.2-0.7-2.8,0-4l29.1-50.4c0.7-1.2,2-2,3.5-2h58.2c1.4,0,2.7,0.8,3.5,2
		l29.1,50.4c0.7,1.2,0.7,2.8,0,4l-29.1,50.4c-0.7,1.2-2,2-3.5,2h-58.2C345,996.4,343.7,995.6,342.9,994.4z"/>
	<path fill="#4B2C86" d="M342.9,1155.4l-29.1-50.4c-0.7-1.2-0.7-2.8,0-4l29.1-50.4c0.7-1.2,2-2,3.5-2h58.2c1.4,0,2.7,0.8,3.5,2
		l29.1,50.4c0.7,1.2,0.7,2.8,0,4l-29.1,50.4c-0.7,1.2-2,2-3.5,2h-58.2C345,1157.4,343.7,1156.6,342.9,1155.4z"/>
	<path fill="#4B2C86" d="M279,1057.4l-19.1-33.7c-0.5-0.8-0.5-1.8,0-2.7l19.1-33.7c0.5-0.8,1.3-1.3,2.3-1.3h38.2
		c0.9,0,1.8,0.5,2.3,1.3l19.1,33.7c0.5,0.8,0.5,1.8,0,2.7l-19.1,33.7c-0.5,0.8-1.3,1.3-2.3,1.3h-38.2
		C280.4,1058.8,279.5,1058.3,279,1057.4z"/>
	<path fill="#488FCC" d="M128.6,1057.4l-19.1-33.7c-0.5-0.8-0.5-1.8,0-2.7l19.1-33.7c0.5-0.8,1.3-1.3,2.3-1.3h38.2
		c0.9,0,1.8,0.5,2.3,1.3l19.1,33.7c0.5,0.8,0.5,1.8,0,2.7l-19.1,33.7c-0.5,0.8-1.3,1.3-2.3,1.3h-38.2
		C130,1058.8,129.1,1058.3,128.6,1057.4z"/>
	<path fill="#4B2C86" d="M279,902l-19.1-33.7c-0.5-0.8-0.5-1.8,0-2.7L279,832c0.5-0.8,1.3-1.3,2.3-1.3h38.2c0.9,0,1.8,0.5,2.3,1.3
		l19.1,33.7c0.5,0.8,0.5,1.8,0,2.7L321.8,902c-0.5,0.8-1.3,1.3-2.3,1.3h-38.2C280.4,903.4,279.5,902.9,279,902z"/>
	<path fill="#488FCC" d="M428.6,1052l-19.1-33.7c-0.5-0.8-0.5-1.8,0-2.7l19.1-33.7c0.5-0.8,1.3-1.3,2.3-1.3h38.2
		c0.9,0,1.8,0.5,2.3,1.3l19.1,33.7c0.5,0.8,0.5,1.8,0,2.7l-19.1,33.7c-0.5,0.8-1.3,1.3-2.3,1.3h-38.2
		C430,1053.4,429.1,1052.9,428.6,1052z"/>
	<path fill="#488FCC" d="M191.9,1155.4l-29.1-50.4c-0.7-1.2-0.7-2.8,0-4l29.1-50.4c0.7-1.2,2-2,3.5-2h58.2c1.4,0,2.7,0.8,3.5,2
		l29.1,50.4c0.7,1.2,0.7,2.8,0,4l-29.1,50.4c-0.7,1.2-2,2-3.5,2h-58.2C194,1157.4,192.7,1156.6,191.9,1155.4z"/>
</g>
<g>
	<path fill="#488FCC" d="M42.9,919.4L13.9,869c-0.7-1.2-0.7-2.8,0-4l29.1-50.4c0.7-1.2,2-2,3.5-2h58.2c1.4,0,2.7,0.8,3.5,2
		l29.1,50.4c0.7,1.2,0.7,2.8,0,4l-29.1,50.4c-0.7,1.2-2,2-3.5,2H46.4C45,921.4,43.7,920.6,42.9,919.4z"/>
	<path fill="#4B2C86" d="M42.9,1080.4L13.9,1030c-0.7-1.2-0.7-2.8,0-4l29.1-50.4c0.7-1.2,2-2,3.5-2h58.2c1.4,0,2.7,0.8,3.5,2
		l29.1,50.4c0.7,1.2,0.7,2.8,0,4l-29.1,50.4c-0.7,1.2-2,2-3.5,2H46.4C45,1082.4,43.7,1081.6,42.9,1080.4z"/>
	<path fill="#4B2C86" d="M-21,982.4l-19.1-33.7c-0.5-0.8-0.5-1.8,0-2.7l19.1-33.7c0.5-0.8,1.3-1.3,2.3-1.3h38.2
		c0.9,0,1.8,0.5,2.3,1.3L40.9,946c0.5,0.8,0.5,1.8,0,2.7l-19.1,33.7c-0.5,0.8-1.3,1.3-2.3,1.3h-38.2
		C-19.6,983.8-20.5,983.3-21,982.4z"/>
	<path fill="#4B2C86" d="M-21,827l-19.1-33.7c-0.5-0.8-0.5-1.8,0-2.7L-21,757c0.5-0.8,1.3-1.3,2.3-1.3h38.2c0.9,0,1.8,0.5,2.3,1.3
		l19.1,33.7c0.5,0.8,0.5,1.8,0,2.7L21.8,827c-0.5,0.8-1.3,1.3-2.3,1.3h-38.2C-19.6,828.4-20.5,827.9-21,827z"/>
	<path fill="#488FCC" d="M128.6,977l-19.1-33.7c-0.5-0.8-0.5-1.8,0-2.7l19.1-33.7c0.5-0.8,1.3-1.3,2.3-1.3h38.2
		c0.9,0,1.8,0.5,2.3,1.3l19.1,33.7c0.5,0.8,0.5,1.8,0,2.7L171.4,977c-0.5,0.8-1.3,1.3-2.3,1.3h-38.2
		C130,978.4,129.1,977.9,128.6,977z"/>
</g>
<g>
	<path fill="#488FCC" d="M728.6,907.4l-19.1-33.7c-0.5-0.8-0.5-1.8,0-2.7l19.1-33.7c0.5-0.8,1.3-1.3,2.3-1.3h38.2
		c0.9,0,1.8,0.5,2.3,1.3l19.1,33.7c0.5,0.8,0.5,1.8,0,2.7l-19.1,33.7c-0.5,0.8-1.3,1.3-2.3,1.3h-38.2
		C730,908.8,729.1,908.3,728.6,907.4z"/>
</g>
<g>
	<path fill="#4B2C86" d="M642.9,930.4L613.9,880c-0.7-1.2-0.7-2.8,0-4l29.1-50.4c0.7-1.2,2-2,3.5-2h58.2c1.4,0,2.7,0.8,3.5,2
		l29.1,50.4c0.7,1.2,0.7,2.8,0,4l-29.1,50.4c-0.7,1.2-2,2-3.5,2h-58.2C645,932.4,643.7,931.6,642.9,930.4z"/>
	<path fill="#4B2C86" d="M579,832.4l-19.1-33.7c-0.5-0.8-0.5-1.8,0-2.7l19.1-33.7c0.5-0.8,1.3-1.3,2.3-1.3h38.2
		c0.9,0,1.8,0.5,2.3,1.3l19.1,33.7c0.5,0.8,0.5,1.8,0,2.7l-19.1,33.7c-0.5,0.8-1.3,1.3-2.3,1.3h-38.2
		C580.4,833.8,579.5,833.3,579,832.4z"/>
	<path fill="#488FCC" d="M428.6,832.4l-19.1-33.7c-0.5-0.8-0.5-1.8,0-2.7l19.1-33.7c0.5-0.8,1.3-1.3,2.3-1.3h38.2
		c0.9,0,1.8,0.5,2.3,1.3l19.1,33.7c0.5,0.8,0.5,1.8,0,2.7l-19.1,33.7c-0.5,0.8-1.3,1.3-2.3,1.3h-38.2
		C430,833.8,429.1,833.3,428.6,832.4z"/>
	<path fill="#488FCC" d="M728.6,827l-19.1-33.7c-0.5-0.8-0.5-1.8,0-2.7l19.1-33.7c0.5-0.8,1.3-1.3,2.3-1.3h38.2
		c0.9,0,1.8,0.5,2.3,1.3l19.1,33.7c0.5,0.8,0.5,1.8,0,2.7L771.4,827c-0.5,0.8-1.3,1.3-2.3,1.3h-38.2
		C730,828.4,729.1,827.9,728.6,827z"/>
	<path fill="#488FCC" d="M491.9,930.4L462.9,880c-0.7-1.2-0.7-2.8,0-4l29.1-50.4c0.7-1.2,2-2,3.5-2h58.2c1.4,0,2.7,0.8,3.5,2
		l29.1,50.4c0.7,1.2,0.7,2.8,0,4l-29.1,50.4c-0.7,1.2-2,2-3.5,2h-58.2C494,932.4,492.7,931.6,491.9,930.4z"/>
</g>
<g>
	<path fill="#4B2C86" d="M342.9,855.4L313.9,805c-0.7-1.2-0.7-2.8,0-4l29.1-50.4c0.7-1.2,2-2,3.5-2h58.2c1.4,0,2.7,0.8,3.5,2
		l29.1,50.4c0.7,1.2,0.7,2.8,0,4l-29.1,50.4c-0.7,1.2-2,2-3.5,2h-58.2C345,857.4,343.7,856.6,342.9,855.4z"/>
	<path fill="#488FCC" d="M191.9,855.4L162.9,805c-0.7-1.2-0.7-2.8,0-4l29.1-50.4c0.7-1.2,2-2,3.5-2h58.2c1.4,0,2.7,0.8,3.5,2
		l29.1,50.4c0.7,1.2,0.7,2.8,0,4l-29.1,50.4c-0.7,1.2-2,2-3.5,2h-58.2C194,857.4,192.7,856.6,191.9,855.4z"/>
</g>
<g>
	<path fill="#4B2C86" d="M-21,827l-19.1-33.7c-0.5-0.8-0.5-1.8,0-2.7L-21,757c0.5-0.8,1.3-1.3,2.3-1.3h38.2c0.9,0,1.8,0.5,2.3,1.3
		l19.1,33.7c0.5,0.8,0.5,1.8,0,2.7L21.8,827c-0.5,0.8-1.3,1.3-2.3,1.3h-38.2C-19.6,828.4-20.5,827.9-21,827z"/>
</g>
<g>
	<path fill="#4B2C86" d="M-108.1,619.4l-29.1-50.4c-0.7-1.2-0.7-2.8,0-4l29.1-50.4c0.7-1.2,2-2,3.5-2h58.2c1.4,0,2.7,0.8,3.5,2
		l29.1,50.4c0.7,1.2,0.7,2.8,0,4l-29.1,50.4c-0.7,1.2-2,2-3.5,2h-58.2C-106,621.4-107.3,620.6-108.1,619.4z"/>
	<path fill="#4B2C86" d="M-21,682.4l-19.1-33.7c-0.5-0.8-0.5-1.8,0-2.7l19.1-33.7c0.5-0.8,1.3-1.3,2.3-1.3h38.2
		c0.9,0,1.8,0.5,2.3,1.3L40.9,646c0.5,0.8,0.5,1.8,0,2.7l-19.1,33.7c-0.5,0.8-1.3,1.3-2.3,1.3h-38.2
		C-19.6,683.8-20.5,683.3-21,682.4z"/>
	<path fill="#488FCC" d="M-171.4,682.4l-19.1-33.7c-0.5-0.8-0.5-1.8,0-2.7l19.1-33.7c0.5-0.8,1.3-1.3,2.3-1.3h38.2
		c0.9,0,1.8,0.5,2.3,1.3l19.1,33.7c0.5,0.8,0.5,1.8,0,2.7l-19.1,33.7c-0.5,0.8-1.3,1.3-2.3,1.3h-38.2
		C-170,683.8-170.9,683.3-171.4,682.4z"/>
	<path fill="#4B2C86" d="M-21,527l-19.1-33.7c-0.5-0.8-0.5-1.8,0-2.7L-21,457c0.5-0.8,1.3-1.3,2.3-1.3h38.2c0.9,0,1.8,0.5,2.3,1.3
		l19.1,33.7c0.5,0.8,0.5,1.8,0,2.7L21.8,527c-0.5,0.8-1.3,1.3-2.3,1.3h-38.2C-19.6,528.4-20.5,527.9-21,527z"/>
	<path fill="#488FCC" d="M-108.1,780.4l-29.1-50.4c-0.7-1.2-0.7-2.8,0-4l29.1-50.4c0.7-1.2,2-2,3.5-2h58.2c1.4,0,2.7,0.8,3.5,2
		l29.1,50.4c0.7,1.2,0.7,2.8,0,4l-29.1,50.4c-0.7,1.2-2,2-3.5,2h-58.2C-106,782.4-107.3,781.6-108.1,780.4z"/>
</g>
<g>
	<path fill="#4B2C86" d="M-408.1,844.4l-29.1-50.4c-0.7-1.2-0.7-2.8,0-4l29.1-50.4c0.7-1.2,2-2,3.5-2h58.2c1.4,0,2.7,0.8,3.5,2
		l29.1,50.4c0.7,1.2,0.7,2.8,0,4l-29.1,50.4c-0.7,1.2-2,2-3.5,2h-58.2C-406,846.4-407.3,845.6-408.1,844.4z"/>
	<path fill="#488FCC" d="M-257.1,844.4l-29.1-50.4c-0.7-1.2-0.7-2.8,0-4l29.1-50.4c0.7-1.2,2-2,3.5-2h58.2c1.4,0,2.7,0.8,3.5,2
		l29.1,50.4c0.7,1.2,0.7,2.8,0,4l-29.1,50.4c-0.7,1.2-2,2-3.5,2h-58.2C-255,846.4-256.3,845.6-257.1,844.4z"/>
	<path fill="#4B2C86" d="M-321,752l-19.1-33.7c-0.5-0.8-0.5-1.8,0-2.7L-321,682c0.5-0.8,1.3-1.3,2.3-1.3h38.2c0.9,0,1.8,0.5,2.3,1.3
		l19.1,33.7c0.5,0.8,0.5,1.8,0,2.7l-19.1,33.7c-0.5,0.8-1.3,1.3-2.3,1.3h-38.2C-319.6,753.4-320.5,752.9-321,752z"/>
</g>
<g>
	<path fill="#488FCC" d="M-471.4,827l-19.1-33.7c-0.5-0.8-0.5-1.8,0-2.7l19.1-33.7c0.5-0.8,1.3-1.3,2.3-1.3h38.2
		c0.9,0,1.8,0.5,2.3,1.3l19.1,33.7c0.5,0.8,0.5,1.8,0,2.7l-19.1,33.7c-0.5,0.8-1.3,1.3-2.3,1.3h-38.2
		C-470,828.4-470.9,827.9-471.4,827z"/>
</g>
<g>
	<path fill="#4B2C86" d="M-108.1,319.4l-29.1-50.4c-0.7-1.2-0.7-2.8,0-4l29.1-50.4c0.7-1.2,2-2,3.5-2h58.2c1.4,0,2.7,0.8,3.5,2
		l29.1,50.4c0.7,1.2,0.7,2.8,0,4l-29.1,50.4c-0.7,1.2-2,2-3.5,2h-58.2C-106,321.4-107.3,320.6-108.1,319.4z"/>
	<path fill="#4B2C86" d="M-21,382.4l-19.1-33.7c-0.5-0.8-0.5-1.8,0-2.7l19.1-33.7c0.5-0.8,1.3-1.3,2.3-1.3h38.2
		c0.9,0,1.8,0.5,2.3,1.3L40.9,346c0.5,0.8,0.5,1.8,0,2.7l-19.1,33.7c-0.5,0.8-1.3,1.3-2.3,1.3h-38.2
		C-19.6,383.8-20.5,383.3-21,382.4z"/>
	<path fill="#488FCC" d="M-171.4,382.4l-19.1-33.7c-0.5-0.8-0.5-1.8,0-2.7l19.1-33.7c0.5-0.8,1.3-1.3,2.3-1.3h38.2
		c0.9,0,1.8,0.5,2.3,1.3l19.1,33.7c0.5,0.8,0.5,1.8,0,2.7l-19.1,33.7c-0.5,0.8-1.3,1.3-2.3,1.3h-38.2
		C-170,383.8-170.9,383.3-171.4,382.4z"/>
	<path fill="#4B2C86" d="M-21,227l-19.1-33.7c-0.5-0.8-0.5-1.8,0-2.7L-21,157c0.5-0.8,1.3-1.3,2.3-1.3h38.2c0.9,0,1.8,0.5,2.3,1.3
		l19.1,33.7c0.5,0.8,0.5,1.8,0,2.7L21.8,227c-0.5,0.8-1.3,1.3-2.3,1.3h-38.2C-19.6,228.4-20.5,227.9-21,227z"/>
	<path fill="#488FCC" d="M-108.1,480.4l-29.1-50.4c-0.7-1.2-0.7-2.8,0-4l29.1-50.4c0.7-1.2,2-2,3.5-2h58.2c1.4,0,2.7,0.8,3.5,2
		l29.1,50.4c0.7,1.2,0.7,2.8,0,4l-29.1,50.4c-0.7,1.2-2,2-3.5,2h-58.2C-106,482.4-107.3,481.6-108.1,480.4z"/>
</g>
<g>
	<path fill="#4B2C86" d="M-408.1,544.4l-29.1-50.4c-0.7-1.2-0.7-2.8,0-4l29.1-50.4c0.7-1.2,2-2,3.5-2h58.2c1.4,0,2.7,0.8,3.5,2
		l29.1,50.4c0.7,1.2,0.7,2.8,0,4l-29.1,50.4c-0.7,1.2-2,2-3.5,2h-58.2C-406,546.4-407.3,545.6-408.1,544.4z"/>
	<path fill="#488FCC" d="M-257.1,544.4l-29.1-50.4c-0.7-1.2-0.7-2.8,0-4l29.1-50.4c0.7-1.2,2-2,3.5-2h58.2c1.4,0,2.7,0.8,3.5,2
		l29.1,50.4c0.7,1.2,0.7,2.8,0,4l-29.1,50.4c-0.7,1.2-2,2-3.5,2h-58.2C-255,546.4-256.3,545.6-257.1,544.4z"/>
	<path fill="#4B2C86" d="M-257.1,705.4l-29.1-50.4c-0.7-1.2-0.7-2.8,0-4l29.1-50.4c0.7-1.2,2-2,3.5-2h58.2c1.4,0,2.7,0.8,3.5,2
		l29.1,50.4c0.7,1.2,0.7,2.8,0,4l-29.1,50.4c-0.7,1.2-2,2-3.5,2h-58.2C-255,707.4-256.3,706.6-257.1,705.4z"/>
	<path fill="#4B2C86" d="M-321,607.4l-19.1-33.7c-0.5-0.8-0.5-1.8,0-2.7l19.1-33.7c0.5-0.8,1.3-1.3,2.3-1.3h38.2
		c0.9,0,1.8,0.5,2.3,1.3l19.1,33.7c0.5,0.8,0.5,1.8,0,2.7l-19.1,33.7c-0.5,0.8-1.3,1.3-2.3,1.3h-38.2
		C-319.6,608.8-320.5,608.3-321,607.4z"/>
	<path fill="#488FCC" d="M-471.4,607.4l-19.1-33.7c-0.5-0.8-0.5-1.8,0-2.7l19.1-33.7c0.5-0.8,1.3-1.3,2.3-1.3h38.2
		c0.9,0,1.8,0.5,2.3,1.3l19.1,33.7c0.5,0.8,0.5,1.8,0,2.7l-19.1,33.7c-0.5,0.8-1.3,1.3-2.3,1.3h-38.2
		C-470,608.8-470.9,608.3-471.4,607.4z"/>
	<path fill="#4B2C86" d="M-321,452l-19.1-33.7c-0.5-0.8-0.5-1.8,0-2.7L-321,382c0.5-0.8,1.3-1.3,2.3-1.3h38.2c0.9,0,1.8,0.5,2.3,1.3
		l19.1,33.7c0.5,0.8,0.5,1.8,0,2.7l-19.1,33.7c-0.5,0.8-1.3,1.3-2.3,1.3h-38.2C-319.6,453.4-320.5,452.9-321,452z"/>
	<path fill="#488FCC" d="M-171.4,602l-19.1-33.7c-0.5-0.8-0.5-1.8,0-2.7l19.1-33.7c0.5-0.8,1.3-1.3,2.3-1.3h38.2
		c0.9,0,1.8,0.5,2.3,1.3l19.1,33.7c0.5,0.8,0.5,1.8,0,2.7l-19.1,33.7c-0.5,0.8-1.3,1.3-2.3,1.3h-38.2
		C-170,603.4-170.9,602.9-171.4,602z"/>
	<path fill="#488FCC" d="M-408.1,705.4l-29.1-50.4c-0.7-1.2-0.7-2.8,0-4l29.1-50.4c0.7-1.2,2-2,3.5-2h58.2c1.4,0,2.7,0.8,3.5,2
		l29.1,50.4c0.7,1.2,0.7,2.8,0,4l-29.1,50.4c-0.7,1.2-2,2-3.5,2h-58.2C-406,707.4-407.3,706.6-408.1,705.4z"/>
</g>
<g>
	<path fill="#488FCC" d="M-471.4,527l-19.1-33.7c-0.5-0.8-0.5-1.8,0-2.7l19.1-33.7c0.5-0.8,1.3-1.3,2.3-1.3h38.2
		c0.9,0,1.8,0.5,2.3,1.3l19.1,33.7c0.5,0.8,0.5,1.8,0,2.7l-19.1,33.7c-0.5,0.8-1.3,1.3-2.3,1.3h-38.2
		C-470,528.4-470.9,527.9-471.4,527z"/>
</g>
<g>
	<path fill="#4B2C86" d="M-108.1,19.4L-137.1-31c-0.7-1.2-0.7-2.8,0-4l29.1-50.4c0.7-1.2,2-2,3.5-2h58.2c1.4,0,2.7,0.8,3.5,2
		L-13.9-35c0.7,1.2,0.7,2.8,0,4l-29.1,50.4c-0.7,1.2-2,2-3.5,2h-58.2C-106,21.4-107.3,20.6-108.1,19.4z"/>
	<path fill="#4B2C86" d="M-21,82.4l-19.1-33.7c-0.5-0.8-0.5-1.8,0-2.7L-21,12.3c0.5-0.8,1.3-1.3,2.3-1.3h38.2c0.9,0,1.8,0.5,2.3,1.3
		L40.9,46c0.5,0.8,0.5,1.8,0,2.7L21.8,82.4c-0.5,0.8-1.3,1.3-2.3,1.3h-38.2C-19.6,83.8-20.5,83.3-21,82.4z"/>
	<path fill="#488FCC" d="M-171.4,82.4l-19.1-33.7c-0.5-0.8-0.5-1.8,0-2.7l19.1-33.7c0.5-0.8,1.3-1.3,2.3-1.3h38.2
		c0.9,0,1.8,0.5,2.3,1.3l19.1,33.7c0.5,0.8,0.5,1.8,0,2.7l-19.1,33.7c-0.5,0.8-1.3,1.3-2.3,1.3h-38.2
		C-170,83.8-170.9,83.3-171.4,82.4z"/>
	<path fill="#4B2C86" d="M-21-73l-19.1-33.7c-0.5-0.8-0.5-1.8,0-2.7L-21-143c0.5-0.8,1.3-1.3,2.3-1.3h38.2c0.9,0,1.8,0.5,2.3,1.3
		l19.1,33.7c0.5,0.8,0.5,1.8,0,2.7L21.8-73c-0.5,0.8-1.3,1.3-2.3,1.3h-38.2C-19.6-71.6-20.5-72.1-21-73z"/>
	<path fill="#488FCC" d="M-108.1,180.4l-29.1-50.4c-0.7-1.2-0.7-2.8,0-4l29.1-50.4c0.7-1.2,2-2,3.5-2h58.2c1.4,0,2.7,0.8,3.5,2
		l29.1,50.4c0.7,1.2,0.7,2.8,0,4l-29.1,50.4c-0.7,1.2-2,2-3.5,2h-58.2C-106,182.4-107.3,181.6-108.1,180.4z"/>
</g>
<g>
	<path fill="#4B2C86" d="M-408.1,244.4l-29.1-50.4c-0.7-1.2-0.7-2.8,0-4l29.1-50.4c0.7-1.2,2-2,3.5-2h58.2c1.4,0,2.7,0.8,3.5,2
		l29.1,50.4c0.7,1.2,0.7,2.8,0,4l-29.1,50.4c-0.7,1.2-2,2-3.5,2h-58.2C-406,246.4-407.3,245.6-408.1,244.4z"/>
	<path fill="#488FCC" d="M-257.1,244.4l-29.1-50.4c-0.7-1.2-0.7-2.8,0-4l29.1-50.4c0.7-1.2,2-2,3.5-2h58.2c1.4,0,2.7,0.8,3.5,2
		l29.1,50.4c0.7,1.2,0.7,2.8,0,4l-29.1,50.4c-0.7,1.2-2,2-3.5,2h-58.2C-255,246.4-256.3,245.6-257.1,244.4z"/>
	<path fill="#4B2C86" d="M-257.1,405.4l-29.1-50.4c-0.7-1.2-0.7-2.8,0-4l29.1-50.4c0.7-1.2,2-2,3.5-2h58.2c1.4,0,2.7,0.8,3.5,2
		l29.1,50.4c0.7,1.2,0.7,2.8,0,4l-29.1,50.4c-0.7,1.2-2,2-3.5,2h-58.2C-255,407.4-256.3,406.6-257.1,405.4z"/>
	<path fill="#4B2C86" d="M-321,307.4l-19.1-33.7c-0.5-0.8-0.5-1.8,0-2.7l19.1-33.7c0.5-0.8,1.3-1.3,2.3-1.3h38.2
		c0.9,0,1.8,0.5,2.3,1.3l19.1,33.7c0.5,0.8,0.5,1.8,0,2.7l-19.1,33.7c-0.5,0.8-1.3,1.3-2.3,1.3h-38.2
		C-319.6,308.8-320.5,308.3-321,307.4z"/>
	<path fill="#488FCC" d="M-471.4,307.4l-19.1-33.7c-0.5-0.8-0.5-1.8,0-2.7l19.1-33.7c0.5-0.8,1.3-1.3,2.3-1.3h38.2
		c0.9,0,1.8,0.5,2.3,1.3l19.1,33.7c0.5,0.8,0.5,1.8,0,2.7l-19.1,33.7c-0.5,0.8-1.3,1.3-2.3,1.3h-38.2
		C-470,308.8-470.9,308.3-471.4,307.4z"/>
	<path fill="#4B2C86" d="M-321,152l-19.1-33.7c-0.5-0.8-0.5-1.8,0-2.7L-321,82c0.5-0.8,1.3-1.3,2.3-1.3h38.2c0.9,0,1.8,0.5,2.3,1.3
		l19.1,33.7c0.5,0.8,0.5,1.8,0,2.7l-19.1,33.7c-0.5,0.8-1.3,1.3-2.3,1.3h-38.2C-319.6,153.4-320.5,152.9-321,152z"/>
	<path fill="#488FCC" d="M-171.4,302l-19.1-33.7c-0.5-0.8-0.5-1.8,0-2.7l19.1-33.7c0.5-0.8,1.3-1.3,2.3-1.3h38.2
		c0.9,0,1.8,0.5,2.3,1.3l19.1,33.7c0.5,0.8,0.5,1.8,0,2.7l-19.1,33.7c-0.5,0.8-1.3,1.3-2.3,1.3h-38.2
		C-170,303.4-170.9,302.9-171.4,302z"/>
	<path fill="#488FCC" d="M-408.1,405.4l-29.1-50.4c-0.7-1.2-0.7-2.8,0-4l29.1-50.4c0.7-1.2,2-2,3.5-2h58.2c1.4,0,2.7,0.8,3.5,2
		l29.1,50.4c0.7,1.2,0.7,2.8,0,4l-29.1,50.4c-0.7,1.2-2,2-3.5,2h-58.2C-406,407.4-407.3,406.6-408.1,405.4z"/>
</g>
<g>
	<path fill="#488FCC" d="M-471.4,227l-19.1-33.7c-0.5-0.8-0.5-1.8,0-2.7l19.1-33.7c0.5-0.8,1.3-1.3,2.3-1.3h38.2
		c0.9,0,1.8,0.5,2.3,1.3l19.1,33.7c0.5,0.8,0.5,1.8,0,2.7l-19.1,33.7c-0.5,0.8-1.3,1.3-2.3,1.3h-38.2
		C-470,228.4-470.9,227.9-471.4,227z"/>
</g>
<g>
	<path fill="#488FCC" d="M-108.1-119.6l-29.1-50.4c-0.7-1.2-0.7-2.8,0-4l29.1-50.4c0.7-1.2,2-2,3.5-2h58.2c1.4,0,2.7,0.8,3.5,2
		l29.1,50.4c0.7,1.2,0.7,2.8,0,4l-29.1,50.4c-0.7,1.2-2,2-3.5,2h-58.2C-106-117.6-107.3-118.4-108.1-119.6z"/>
</g>
<g>
	<path fill="#4B2C86" d="M-408.1-55.6l-29.1-50.4c-0.7-1.2-0.7-2.8,0-4l29.1-50.4c0.7-1.2,2-2,3.5-2h58.2c1.4,0,2.7,0.8,3.5,2
		l29.1,50.4c0.7,1.2,0.7,2.8,0,4l-29.1,50.4c-0.7,1.2-2,2-3.5,2h-58.2C-406-53.6-407.3-54.4-408.1-55.6z"/>
	<path fill="#488FCC" d="M-257.1-55.6l-29.1-50.4c-0.7-1.2-0.7-2.8,0-4l29.1-50.4c0.7-1.2,2-2,3.5-2h58.2c1.4,0,2.7,0.8,3.5,2
		l29.1,50.4c0.7,1.2,0.7,2.8,0,4l-29.1,50.4c-0.7,1.2-2,2-3.5,2h-58.2C-255-53.6-256.3-54.4-257.1-55.6z"/>
	<path fill="#4B2C86" d="M-257.1,105.4L-286.1,55c-0.7-1.2-0.7-2.8,0-4l29.1-50.4c0.7-1.2,2-2,3.5-2h58.2c1.4,0,2.7,0.8,3.5,2
		l29.1,50.4c0.7,1.2,0.7,2.8,0,4l-29.1,50.4c-0.7,1.2-2,2-3.5,2h-58.2C-255,107.4-256.3,106.6-257.1,105.4z"/>
	<path fill="#4B2C86" d="M-321,7.4l-19.1-33.7c-0.5-0.8-0.5-1.8,0-2.7l19.1-33.7c0.5-0.8,1.3-1.3,2.3-1.3h38.2
		c0.9,0,1.8,0.5,2.3,1.3l19.1,33.7c0.5,0.8,0.5,1.8,0,2.7l-19.1,33.7c-0.5,0.8-1.3,1.3-2.3,1.3h-38.2C-319.6,8.8-320.5,8.3-321,7.4z
		"/>
	<path fill="#488FCC" d="M-471.4,7.4l-19.1-33.7c-0.5-0.8-0.5-1.8,0-2.7l19.1-33.7c0.5-0.8,1.3-1.3,2.3-1.3h38.2
		c0.9,0,1.8,0.5,2.3,1.3l19.1,33.7c0.5,0.8,0.5,1.8,0,2.7l-19.1,33.7c-0.5,0.8-1.3,1.3-2.3,1.3h-38.2C-470,8.8-470.9,8.3-471.4,7.4z
		"/>
	<path fill="#4B2C86" d="M-321-148l-19.1-33.7c-0.5-0.8-0.5-1.8,0-2.7L-321-218c0.5-0.8,1.3-1.3,2.3-1.3h38.2c0.9,0,1.8,0.5,2.3,1.3
		l19.1,33.7c0.5,0.8,0.5,1.8,0,2.7l-19.1,33.7c-0.5,0.8-1.3,1.3-2.3,1.3h-38.2C-319.6-146.6-320.5-147.1-321-148z"/>
	<path fill="#488FCC" d="M-171.4,2l-19.1-33.7c-0.5-0.8-0.5-1.8,0-2.7l19.1-33.7c0.5-0.8,1.3-1.3,2.3-1.3h38.2
		c0.9,0,1.8,0.5,2.3,1.3l19.1,33.7c0.5,0.8,0.5,1.8,0,2.7L-128.6,2c-0.5,0.8-1.3,1.3-2.3,1.3h-38.2C-170,3.4-170.9,2.9-171.4,2z"/>
	<path fill="#488FCC" d="M-408.1,105.4L-437.1,55c-0.7-1.2-0.7-2.8,0-4l29.1-50.4c0.7-1.2,2-2,3.5-2h58.2c1.4,0,2.7,0.8,3.5,2
		l29.1,50.4c0.7,1.2,0.7,2.8,0,4l-29.1,50.4c-0.7,1.2-2,2-3.5,2h-58.2C-406,107.4-407.3,106.6-408.1,105.4z"/>
</g>
<g>
	<path fill="#488FCC" d="M-471.4-73l-19.1-33.7c-0.5-0.8-0.5-1.8,0-2.7l19.1-33.7c0.5-0.8,1.3-1.3,2.3-1.3h38.2
		c0.9,0,1.8,0.5,2.3,1.3l19.1,33.7c0.5,0.8,0.5,1.8,0,2.7L-428.6-73c-0.5,0.8-1.3,1.3-2.3,1.3h-38.2C-470-71.6-470.9-72.1-471.4-73z
		"/>
</g>
<g>
	<path fill="#4B2C86" d="M-257.1-194.6l-29.1-50.4c-0.7-1.2-0.7-2.8,0-4l29.1-50.4c0.7-1.2,2-2,3.5-2h58.2c1.4,0,2.7,0.8,3.5,2
		l29.1,50.4c0.7,1.2,0.7,2.8,0,4l-29.1,50.4c-0.7,1.2-2,2-3.5,2h-58.2C-255-192.6-256.3-193.4-257.1-194.6z"/>
	<path fill="#488FCC" d="M-408.1-194.6l-29.1-50.4c-0.7-1.2-0.7-2.8,0-4l29.1-50.4c0.7-1.2,2-2,3.5-2h58.2c1.4,0,2.7,0.8,3.5,2
		l29.1,50.4c0.7,1.2,0.7,2.8,0,4l-29.1,50.4c-0.7,1.2-2,2-3.5,2h-58.2C-406-192.6-407.3-193.4-408.1-194.6z"/>
</g>
<g>
	<path fill="#4B2C86" d="M-108.1,1219.4l-29.1-50.4c-0.7-1.2-0.7-2.8,0-4l29.1-50.4c0.7-1.2,2-2,3.5-2h58.2c1.4,0,2.7,0.8,3.5,2
		l29.1,50.4c0.7,1.2,0.7,2.8,0,4l-29.1,50.4c-0.7,1.2-2,2-3.5,2h-58.2C-106,1221.4-107.3,1220.6-108.1,1219.4z"/>
	<path fill="#4B2C86" d="M-21,1282.4l-19.1-33.7c-0.5-0.8-0.5-1.8,0-2.7l19.1-33.7c0.5-0.8,1.3-1.3,2.3-1.3h38.2
		c0.9,0,1.8,0.5,2.3,1.3l19.1,33.7c0.5,0.8,0.5,1.8,0,2.7l-19.1,33.7c-0.5,0.8-1.3,1.3-2.3,1.3h-38.2
		C-19.6,1283.8-20.5,1283.3-21,1282.4z"/>
	<path fill="#488FCC" d="M-171.4,1282.4l-19.1-33.7c-0.5-0.8-0.5-1.8,0-2.7l19.1-33.7c0.5-0.8,1.3-1.3,2.3-1.3h38.2
		c0.9,0,1.8,0.5,2.3,1.3l19.1,33.7c0.5,0.8,0.5,1.8,0,2.7l-19.1,33.7c-0.5,0.8-1.3,1.3-2.3,1.3h-38.2
		C-170,1283.8-170.9,1283.3-171.4,1282.4z"/>
	<path fill="#4B2C86" d="M-21,1127l-19.1-33.7c-0.5-0.8-0.5-1.8,0-2.7L-21,1057c0.5-0.8,1.3-1.3,2.3-1.3h38.2c0.9,0,1.8,0.5,2.3,1.3
		l19.1,33.7c0.5,0.8,0.5,1.8,0,2.7L21.8,1127c-0.5,0.8-1.3,1.3-2.3,1.3h-38.2C-19.6,1128.4-20.5,1127.9-21,1127z"/>
	<path fill="#488FCC" d="M-108.1,1380.4l-29.1-50.4c-0.7-1.2-0.7-2.8,0-4l29.1-50.4c0.7-1.2,2-2,3.5-2h58.2c1.4,0,2.7,0.8,3.5,2
		l29.1,50.4c0.7,1.2,0.7,2.8,0,4l-29.1,50.4c-0.7,1.2-2,2-3.5,2h-58.2C-106,1382.4-107.3,1381.6-108.1,1380.4z"/>
</g>
<g>
	<path fill="#4B2C86" d="M-321,1352l-19.1-33.7c-0.5-0.8-0.5-1.8,0-2.7l19.1-33.7c0.5-0.8,1.3-1.3,2.3-1.3h38.2
		c0.9,0,1.8,0.5,2.3,1.3l19.1,33.7c0.5,0.8,0.5,1.8,0,2.7l-19.1,33.7c-0.5,0.8-1.3,1.3-2.3,1.3h-38.2
		C-319.6,1353.4-320.5,1352.9-321,1352z"/>
</g>
<g>
	<path fill="#4B2C86" d="M-108.1,919.4l-29.1-50.4c-0.7-1.2-0.7-2.8,0-4l29.1-50.4c0.7-1.2,2-2,3.5-2h58.2c1.4,0,2.7,0.8,3.5,2
		l29.1,50.4c0.7,1.2,0.7,2.8,0,4l-29.1,50.4c-0.7,1.2-2,2-3.5,2h-58.2C-106,921.4-107.3,920.6-108.1,919.4z"/>
	<path fill="#4B2C86" d="M-21,982.4l-19.1-33.7c-0.5-0.8-0.5-1.8,0-2.7l19.1-33.7c0.5-0.8,1.3-1.3,2.3-1.3h38.2
		c0.9,0,1.8,0.5,2.3,1.3L40.9,946c0.5,0.8,0.5,1.8,0,2.7l-19.1,33.7c-0.5,0.8-1.3,1.3-2.3,1.3h-38.2
		C-19.6,983.8-20.5,983.3-21,982.4z"/>
	<path fill="#488FCC" d="M-171.4,982.4l-19.1-33.7c-0.5-0.8-0.5-1.8,0-2.7l19.1-33.7c0.5-0.8,1.3-1.3,2.3-1.3h38.2
		c0.9,0,1.8,0.5,2.3,1.3l19.1,33.7c0.5,0.8,0.5,1.8,0,2.7l-19.1,33.7c-0.5,0.8-1.3,1.3-2.3,1.3h-38.2
		C-170,983.8-170.9,983.3-171.4,982.4z"/>
	<path fill="#4B2C86" d="M-21,827l-19.1-33.7c-0.5-0.8-0.5-1.8,0-2.7L-21,757c0.5-0.8,1.3-1.3,2.3-1.3h38.2c0.9,0,1.8,0.5,2.3,1.3
		l19.1,33.7c0.5,0.8,0.5,1.8,0,2.7L21.8,827c-0.5,0.8-1.3,1.3-2.3,1.3h-38.2C-19.6,828.4-20.5,827.9-21,827z"/>
	<path fill="#488FCC" d="M-108.1,1080.4l-29.1-50.4c-0.7-1.2-0.7-2.8,0-4l29.1-50.4c0.7-1.2,2-2,3.5-2h58.2c1.4,0,2.7,0.8,3.5,2
		l29.1,50.4c0.7,1.2,0.7,2.8,0,4l-29.1,50.4c-0.7,1.2-2,2-3.5,2h-58.2C-106,1082.4-107.3,1081.6-108.1,1080.4z"/>
</g>
<g>
	<path fill="#4B2C86" d="M-408.1,1144.4l-29.1-50.4c-0.7-1.2-0.7-2.8,0-4l29.1-50.4c0.7-1.2,2-2,3.5-2h58.2c1.4,0,2.7,0.8,3.5,2
		l29.1,50.4c0.7,1.2,0.7,2.8,0,4l-29.1,50.4c-0.7,1.2-2,2-3.5,2h-58.2C-406,1146.4-407.3,1145.6-408.1,1144.4z"/>
	<path fill="#488FCC" d="M-257.1,1144.4l-29.1-50.4c-0.7-1.2-0.7-2.8,0-4l29.1-50.4c0.7-1.2,2-2,3.5-2h58.2c1.4,0,2.7,0.8,3.5,2
		l29.1,50.4c0.7,1.2,0.7,2.8,0,4l-29.1,50.4c-0.7,1.2-2,2-3.5,2h-58.2C-255,1146.4-256.3,1145.6-257.1,1144.4z"/>
	<path fill="#4B2C86" d="M-257.1,1305.4l-29.1-50.4c-0.7-1.2-0.7-2.8,0-4l29.1-50.4c0.7-1.2,2-2,3.5-2h58.2c1.4,0,2.7,0.8,3.5,2
		l29.1,50.4c0.7,1.2,0.7,2.8,0,4l-29.1,50.4c-0.7,1.2-2,2-3.5,2h-58.2C-255,1307.4-256.3,1306.6-257.1,1305.4z"/>
	<path fill="#4B2C86" d="M-321,1207.4l-19.1-33.7c-0.5-0.8-0.5-1.8,0-2.7l19.1-33.7c0.5-0.8,1.3-1.3,2.3-1.3h38.2
		c0.9,0,1.8,0.5,2.3,1.3l19.1,33.7c0.5,0.8,0.5,1.8,0,2.7l-19.1,33.7c-0.5,0.8-1.3,1.3-2.3,1.3h-38.2
		C-319.6,1208.8-320.5,1208.3-321,1207.4z"/>
	<path fill="#488FCC" d="M-471.4,1207.4l-19.1-33.7c-0.5-0.8-0.5-1.8,0-2.7l19.1-33.7c0.5-0.8,1.3-1.3,2.3-1.3h38.2
		c0.9,0,1.8,0.5,2.3,1.3l19.1,33.7c0.5,0.8,0.5,1.8,0,2.7l-19.1,33.7c-0.5,0.8-1.3,1.3-2.3,1.3h-38.2
		C-470,1208.8-470.9,1208.3-471.4,1207.4z"/>
	<path fill="#4B2C86" d="M-321,1052l-19.1-33.7c-0.5-0.8-0.5-1.8,0-2.7L-321,982c0.5-0.8,1.3-1.3,2.3-1.3h38.2
		c0.9,0,1.8,0.5,2.3,1.3l19.1,33.7c0.5,0.8,0.5,1.8,0,2.7l-19.1,33.7c-0.5,0.8-1.3,1.3-2.3,1.3h-38.2
		C-319.6,1053.4-320.5,1052.9-321,1052z"/>
	<path fill="#488FCC" d="M-171.4,1202l-19.1-33.7c-0.5-0.8-0.5-1.8,0-2.7l19.1-33.7c0.5-0.8,1.3-1.3,2.3-1.3h38.2
		c0.9,0,1.8,0.5,2.3,1.3l19.1,33.7c0.5,0.8,0.5,1.8,0,2.7l-19.1,33.7c-0.5,0.8-1.3,1.3-2.3,1.3h-38.2
		C-170,1203.4-170.9,1202.9-171.4,1202z"/>
	<path fill="#488FCC" d="M-408.1,1305.4l-29.1-50.4c-0.7-1.2-0.7-2.8,0-4l29.1-50.4c0.7-1.2,2-2,3.5-2h58.2c1.4,0,2.7,0.8,3.5,2
		l29.1,50.4c0.7,1.2,0.7,2.8,0,4l-29.1,50.4c-0.7,1.2-2,2-3.5,2h-58.2C-406,1307.4-407.3,1306.6-408.1,1305.4z"/>
</g>
<g>
	<path fill="#488FCC" d="M-471.4,1127l-19.1-33.7c-0.5-0.8-0.5-1.8,0-2.7l19.1-33.7c0.5-0.8,1.3-1.3,2.3-1.3h38.2
		c0.9,0,1.8,0.5,2.3,1.3l19.1,33.7c0.5,0.8,0.5,1.8,0,2.7l-19.1,33.7c-0.5,0.8-1.3,1.3-2.3,1.3h-38.2
		C-470,1128.4-470.9,1127.9-471.4,1127z"/>
</g>
<g>
	<path fill="#4B2C86" d="M-257.1,1005.4l-29.1-50.4c-0.7-1.2-0.7-2.8,0-4l29.1-50.4c0.7-1.2,2-2,3.5-2h58.2c1.4,0,2.7,0.8,3.5,2
		l29.1,50.4c0.7,1.2,0.7,2.8,0,4l-29.1,50.4c-0.7,1.2-2,2-3.5,2h-58.2C-255,1007.4-256.3,1006.6-257.1,1005.4z"/>
	<path fill="#4B2C86" d="M-321,907.4l-19.1-33.7c-0.5-0.8-0.5-1.8,0-2.7l19.1-33.7c0.5-0.8,1.3-1.3,2.3-1.3h38.2
		c0.9,0,1.8,0.5,2.3,1.3l19.1,33.7c0.5,0.8,0.5,1.8,0,2.7l-19.1,33.7c-0.5,0.8-1.3,1.3-2.3,1.3h-38.2
		C-319.6,908.8-320.5,908.3-321,907.4z"/>
	<path fill="#488FCC" d="M-471.4,907.4l-19.1-33.7c-0.5-0.8-0.5-1.8,0-2.7l19.1-33.7c0.5-0.8,1.3-1.3,2.3-1.3h38.2
		c0.9,0,1.8,0.5,2.3,1.3l19.1,33.7c0.5,0.8,0.5,1.8,0,2.7l-19.1,33.7c-0.5,0.8-1.3,1.3-2.3,1.3h-38.2
		C-470,908.8-470.9,908.3-471.4,907.4z"/>
	<path fill="#488FCC" d="M-171.4,902l-19.1-33.7c-0.5-0.8-0.5-1.8,0-2.7l19.1-33.7c0.5-0.8,1.3-1.3,2.3-1.3h38.2
		c0.9,0,1.8,0.5,2.3,1.3l19.1,33.7c0.5,0.8,0.5,1.8,0,2.7l-19.1,33.7c-0.5,0.8-1.3,1.3-2.3,1.3h-38.2
		C-170,903.4-170.9,902.9-171.4,902z"/>
	<path fill="#488FCC" d="M-408.1,1005.4l-29.1-50.4c-0.7-1.2-0.7-2.8,0-4l29.1-50.4c0.7-1.2,2-2,3.5-2h58.2c1.4,0,2.7,0.8,3.5,2
		l29.1,50.4c0.7,1.2,0.7,2.8,0,4l-29.1,50.4c-0.7,1.2-2,2-3.5,2h-58.2C-406,1007.4-407.3,1006.6-408.1,1005.4z"/>
</g>
<g>
	<path fill="#488FCC" d="M-471.4,827l-19.1-33.7c-0.5-0.8-0.5-1.8,0-2.7l19.1-33.7c0.5-0.8,1.3-1.3,2.3-1.3h38.2
		c0.9,0,1.8,0.5,2.3,1.3l19.1,33.7c0.5,0.8,0.5,1.8,0,2.7l-19.1,33.7c-0.5,0.8-1.3,1.3-2.3,1.3h-38.2
		C-470,828.4-470.9,827.9-471.4,827z"/>
</g>
<rect x="-440" y="-214" fill="none" width="1200" height="1500"/>
</svg>
