<?xml version="1.0" encoding="utf-8"?>
<!-- Generator: Adobe Illustrator 18.0.0, SVG Export Plug-In . SVG Version: 6.00 Build 0)  -->
<!DOCTYPE svg PUBLIC "-//W3C//DTD SVG 1.1//EN" "http://www.w3.org/Graphics/SVG/1.1/DTD/svg11.dtd">
<svg version="1.1" id="Layer_1" xmlns="http://www.w3.org/2000/svg" xmlns:xlink="http://www.w3.org/1999/xlink" x="0px" y="0px"
	 viewBox="0 0 500 77.1" enable-background="new 0 0 500 77.1" xml:space="preserve">
<g>
	<path d="M18.5,27.2h3.9c0.4,0,0.7,0.1,1,0.3c0.3,0.2,0.4,0.4,0.5,0.7l5.3,17.9c0.1,0.7,0.3,1.3,0.4,1.9c0.1,0.6,0.2,1.2,0.3,1.9
		c0.1-0.6,0.3-1.2,0.5-1.9s0.4-1.3,0.6-1.9l5.9-18c0.1-0.3,0.3-0.5,0.5-0.7c0.2-0.2,0.5-0.3,0.9-0.3h2.1c0.4,0,0.7,0.1,0.9,0.3
		c0.2,0.2,0.4,0.4,0.5,0.7l5.7,18c0.2,0.6,0.4,1.3,0.5,1.9c0.2,0.6,0.3,1.2,0.5,1.8c0.1-0.6,0.2-1.2,0.4-1.9
		c0.1-0.7,0.3-1.3,0.5-1.8l5.4-17.9c0.1-0.3,0.3-0.5,0.5-0.7c0.3-0.2,0.6-0.3,0.9-0.3h3.7l-9,27.9H47c-0.5,0-0.8-0.3-1-0.9
		l-6.2-18.9c-0.1-0.4-0.3-0.8-0.4-1.3c-0.1-0.4-0.2-0.9-0.3-1.3c-0.1,0.4-0.2,0.9-0.3,1.3c-0.1,0.4-0.2,0.9-0.4,1.3l-6.2,18.9
		c-0.2,0.6-0.6,0.9-1.1,0.9h-3.7L18.5,27.2z"/>
	<path d="M75.3,26.8c1.7,0,3.2,0.3,4.6,0.8c1.4,0.6,2.6,1.4,3.7,2.4c1,1.1,1.8,2.4,2.4,3.9c0.6,1.5,0.9,3.3,0.9,5.3
		c0,0.8-0.1,1.3-0.2,1.5c-0.2,0.3-0.5,0.4-0.9,0.4H67.2c0,1.8,0.3,3.3,0.7,4.6s1,2.4,1.8,3.3c0.8,0.9,1.7,1.5,2.8,2
		c1.1,0.4,2.3,0.6,3.6,0.6c1.2,0,2.3-0.1,3.2-0.4c0.9-0.3,1.7-0.6,2.3-0.9c0.6-0.3,1.2-0.6,1.6-0.9s0.8-0.4,1.1-0.4
		c0.4,0,0.7,0.2,0.9,0.5l1.4,1.8c-0.6,0.7-1.3,1.4-2.2,1.9s-1.7,1-2.7,1.3c-1,0.3-2,0.6-3,0.8c-1,0.2-2,0.3-3.1,0.3
		c-1.9,0-3.7-0.3-5.3-1s-3-1.6-4.2-2.9c-1.2-1.3-2.1-2.8-2.8-4.7c-0.7-1.9-1-4-1-6.4c0-1.9,0.3-3.8,0.9-5.4c0.6-1.7,1.5-3.1,2.6-4.4
		c1.1-1.2,2.5-2.2,4.1-2.9C71.5,27.1,73.3,26.8,75.3,26.8z M75.4,30.4c-2.4,0-4.2,0.7-5.6,2c-1.4,1.4-2.2,3.3-2.5,5.7h15.2
		c0-1.1-0.2-2.2-0.5-3.1c-0.3-0.9-0.8-1.8-1.4-2.4s-1.3-1.2-2.2-1.6C77.6,30.6,76.6,30.4,75.4,30.4z"/>
	<path d="M93.1,55.1V27.2H96c0.7,0,1.1,0.3,1.3,1l0.4,3c1.2-1.3,2.6-2.4,4.1-3.2c1.5-0.8,3.2-1.2,5.2-1.2c1.5,0,2.9,0.3,4,0.8
		c1.2,0.5,2.1,1.2,2.9,2.1c0.8,0.9,1.4,2,1.8,3.3s0.6,2.7,0.6,4.3v17.7h-4.9V37.3c0-2.1-0.5-3.7-1.4-4.9c-1-1.2-2.4-1.7-4.4-1.7
		c-1.4,0-2.8,0.3-4.1,1c-1.3,0.7-2.4,1.6-3.5,2.8v20.5H93.1z"/>
	<path d="M143.3,55.1c-0.7,0-1.1-0.3-1.3-1l-0.4-3.4c-1.2,1.4-2.6,2.6-4.1,3.5c-1.5,0.9-3.3,1.3-5.3,1.3c-1.6,0-3-0.3-4.3-0.9
		s-2.4-1.5-3.3-2.7c-0.9-1.2-1.6-2.7-2.1-4.5c-0.5-1.8-0.7-3.8-0.7-6.1c0-2.1,0.3-4,0.8-5.7c0.5-1.8,1.3-3.3,2.4-4.6
		s2.3-2.3,3.8-3.1c1.5-0.7,3.2-1.1,5.1-1.1c1.7,0,3.2,0.3,4.4,0.9c1.2,0.6,2.3,1.4,3.2,2.4V14.6h4.9v40.5H143.3z M133.8,51.5
		c1.6,0,3-0.4,4.2-1.1s2.3-1.8,3.3-3.1V33.8c-0.9-1.2-1.9-2.1-3-2.5c-1.1-0.5-2.3-0.7-3.6-0.7c-2.6,0-4.6,0.9-6,2.8
		c-1.4,1.9-2.1,4.5-2.1,7.9c0,1.8,0.2,3.4,0.5,4.7c0.3,1.3,0.8,2.4,1.4,3.2c0.6,0.8,1.3,1.4,2.2,1.8
		C131.7,51.3,132.7,51.5,133.8,51.5z"/>
	<path d="M165.5,26.8c1.7,0,3.2,0.3,4.6,0.8c1.4,0.6,2.6,1.4,3.7,2.4c1,1.1,1.8,2.4,2.4,3.9c0.6,1.5,0.9,3.3,0.9,5.3
		c0,0.8-0.1,1.3-0.2,1.5c-0.2,0.3-0.5,0.4-0.9,0.4h-18.5c0,1.8,0.3,3.3,0.7,4.6s1,2.4,1.8,3.3c0.8,0.9,1.7,1.5,2.8,2
		c1.1,0.4,2.3,0.6,3.6,0.6c1.2,0,2.3-0.1,3.2-0.4c0.9-0.3,1.7-0.6,2.3-0.9c0.6-0.3,1.2-0.6,1.6-0.9s0.8-0.4,1.1-0.4
		c0.4,0,0.7,0.2,0.9,0.5l1.4,1.8c-0.6,0.7-1.3,1.4-2.2,1.9s-1.7,1-2.7,1.3c-1,0.3-2,0.6-3,0.8c-1,0.2-2,0.3-3.1,0.3
		c-1.9,0-3.7-0.3-5.3-1s-3-1.6-4.2-2.9c-1.2-1.3-2.1-2.8-2.8-4.7c-0.7-1.9-1-4-1-6.4c0-1.9,0.3-3.8,0.9-5.4c0.6-1.7,1.5-3.1,2.6-4.4
		c1.1-1.2,2.5-2.2,4.1-2.9C161.6,27.1,163.5,26.8,165.5,26.8z M165.6,30.4c-2.4,0-4.2,0.7-5.6,2c-1.4,1.4-2.2,3.3-2.5,5.7h15.2
		c0-1.1-0.2-2.2-0.5-3.1c-0.3-0.9-0.8-1.8-1.4-2.4s-1.3-1.2-2.2-1.6C167.7,30.6,166.7,30.4,165.6,30.4z"/>
	<path d="M188.7,14.6v40.5h-4.9V14.6H188.7z"/>
	<path fill="#3C3C3C" d="M197.4,55.1V27.2h2.9c0.7,0,1.1,0.3,1.3,1l0.4,3c1.2-1.3,2.6-2.4,4.1-3.2c1.5-0.8,3.2-1.2,5.2-1.2
		c1.5,0,2.9,0.3,4,0.8c1.2,0.5,2.1,1.2,2.9,2.1c0.8,0.9,1.4,2,1.8,3.3s0.6,2.7,0.6,4.3v17.7h-4.9V37.3c0-2.1-0.5-3.7-1.4-4.9
		c-1-1.2-2.4-1.7-4.4-1.7c-1.4,0-2.8,0.3-4.1,1c-1.3,0.7-2.4,1.6-3.5,2.8v20.5H197.4z"/>
	<path fill="#3C3C3C" d="M248.4,55.1h-2.2c-0.5,0-0.9-0.1-1.2-0.2c-0.3-0.1-0.5-0.5-0.6-0.9l-0.5-2.6c-0.7,0.7-1.4,1.3-2.1,1.8
		c-0.7,0.5-1.4,1-2.2,1.3c-0.8,0.4-1.6,0.6-2.5,0.8c-0.9,0.2-1.8,0.3-2.9,0.3c-1.1,0-2.1-0.2-3-0.5c-0.9-0.3-1.8-0.8-2.5-1.4
		c-0.7-0.6-1.3-1.4-1.7-2.3c-0.4-0.9-0.6-2-0.6-3.3c0-1.1,0.3-2.2,0.9-3.2c0.6-1,1.6-1.9,2.9-2.7s3.1-1.4,5.3-1.9
		c2.2-0.5,4.8-0.8,8-0.8v-2.2c0-2.2-0.5-3.8-1.4-4.9c-0.9-1.1-2.3-1.7-4.1-1.7c-1.2,0-2.2,0.2-3,0.5c-0.8,0.3-1.5,0.6-2.1,1
		s-1.1,0.7-1.5,1s-0.9,0.5-1.3,0.5c-0.3,0-0.6-0.1-0.9-0.3c-0.2-0.2-0.4-0.4-0.6-0.6l-0.9-1.6c1.5-1.5,3.2-2.6,5-3.3
		c1.8-0.7,3.7-1.1,5.9-1.1c1.6,0,2.9,0.3,4.2,0.8s2.2,1.2,3.1,2.1c0.8,0.9,1.4,2,1.9,3.3s0.6,2.7,0.6,4.3V55.1z M235.7,52.1
		c0.9,0,1.6-0.1,2.4-0.3c0.7-0.2,1.4-0.4,2-0.7c0.6-0.3,1.2-0.7,1.8-1.2c0.6-0.5,1.1-1,1.7-1.6v-5.7c-2.3,0-4.2,0.1-5.7,0.4
		c-1.6,0.3-2.9,0.7-3.9,1.1c-1,0.5-1.7,1-2.2,1.6s-0.7,1.3-0.7,2.1c0,0.7,0.1,1.4,0.4,1.9c0.2,0.5,0.6,1,1,1.3
		c0.4,0.3,0.9,0.6,1.4,0.7C234.4,52,235,52.1,235.7,52.1z"/>
	<path fill="#3C3C3C" d="M271.8,31.8c-0.2,0.4-0.6,0.6-1,0.6c-0.3,0-0.6-0.1-0.9-0.3c-0.3-0.2-0.8-0.4-1.3-0.7
		c-0.5-0.2-1.1-0.5-1.8-0.7c-0.7-0.2-1.5-0.3-2.5-0.3c-0.8,0-1.6,0.1-2.2,0.3s-1.2,0.5-1.7,0.9s-0.8,0.8-1.1,1.3
		c-0.2,0.5-0.4,1-0.4,1.6c0,0.7,0.2,1.3,0.6,1.8c0.4,0.5,1,0.9,1.6,1.2c0.7,0.3,1.4,0.7,2.3,0.9c0.9,0.3,1.7,0.6,2.7,0.9
		c0.9,0.3,1.8,0.6,2.7,1c0.9,0.4,1.6,0.8,2.3,1.4c0.7,0.5,1.2,1.2,1.6,2s0.6,1.8,0.6,2.9c0,1.3-0.2,2.5-0.7,3.6
		c-0.5,1.1-1.1,2-2,2.8c-0.9,0.8-2,1.4-3.3,1.9s-2.8,0.7-4.5,0.7c-1.9,0-3.7-0.3-5.3-0.9c-1.6-0.6-2.9-1.4-4-2.4l1.2-1.9
		c0.1-0.2,0.3-0.4,0.5-0.5c0.2-0.1,0.5-0.2,0.8-0.2c0.3,0,0.7,0.1,1,0.4c0.4,0.3,0.8,0.5,1.3,0.9c0.5,0.3,1.2,0.6,1.9,0.9
		c0.7,0.3,1.7,0.4,2.8,0.4c1,0,1.8-0.1,2.5-0.4c0.7-0.2,1.3-0.6,1.8-1c0.5-0.4,0.8-0.9,1.1-1.5c0.2-0.5,0.3-1.1,0.3-1.8
		c0-0.8-0.2-1.4-0.6-1.9c-0.4-0.5-1-0.9-1.6-1.3c-0.7-0.4-1.5-0.7-2.3-0.9s-1.8-0.5-2.7-0.8c-0.9-0.3-1.8-0.6-2.7-1
		s-1.6-0.8-2.3-1.4c-0.7-0.6-1.2-1.3-1.6-2.1c-0.4-0.8-0.6-1.8-0.6-3c0-1.1,0.2-2.1,0.7-3.1c0.4-1,1.1-1.8,1.9-2.6
		c0.8-0.7,1.9-1.3,3.1-1.8c1.2-0.4,2.6-0.7,4.2-0.7c1.8,0,3.5,0.3,4.9,0.9c1.5,0.6,2.7,1.4,3.8,2.4L271.8,31.8z"/>
	<path fill="#3C3C3C" d="M298.7,32.2c-0.1,0.2-0.3,0.4-0.4,0.5c-0.1,0.1-0.4,0.2-0.6,0.2c-0.3,0-0.6-0.1-0.9-0.3s-0.7-0.5-1.2-0.8
		c-0.5-0.3-1.1-0.5-1.8-0.8c-0.7-0.2-1.6-0.3-2.6-0.3c-1.4,0-2.6,0.2-3.6,0.7c-1,0.5-1.9,1.2-2.6,2.1c-0.7,0.9-1.2,2-1.6,3.3
		s-0.5,2.8-0.5,4.4c0,1.7,0.2,3.2,0.6,4.5c0.4,1.3,0.9,2.4,1.6,3.3c0.7,0.9,1.5,1.6,2.5,2c1,0.5,2.1,0.7,3.4,0.7
		c1.2,0,2.2-0.1,2.9-0.4c0.8-0.3,1.4-0.6,1.9-0.9c0.5-0.3,0.9-0.7,1.3-0.9s0.7-0.4,1-0.4c0.4,0,0.7,0.2,0.9,0.5l1.4,1.8
		c-1.2,1.5-2.7,2.6-4.5,3.3c-1.8,0.7-3.7,1-5.7,1c-1.7,0-3.4-0.3-4.9-1s-2.8-1.6-3.9-2.8c-1.1-1.2-2-2.7-2.6-4.5
		c-0.6-1.8-0.9-3.8-0.9-6.1c0-2.1,0.3-4,0.9-5.7c0.6-1.8,1.4-3.3,2.5-4.6c1.1-1.3,2.5-2.3,4.1-3s3.5-1.1,5.6-1.1
		c1.9,0,3.7,0.3,5.2,0.9c1.5,0.6,2.8,1.5,4,2.7L298.7,32.2z"/>
	<path fill="#3C3C3C" d="M311.9,18.5c0,0.5-0.1,0.9-0.3,1.3c-0.2,0.4-0.5,0.8-0.8,1.1c-0.3,0.3-0.7,0.6-1.1,0.8
		c-0.4,0.2-0.9,0.3-1.3,0.3c-0.5,0-0.9-0.1-1.3-0.3s-0.8-0.4-1.1-0.8c-0.3-0.3-0.6-0.7-0.8-1.1s-0.3-0.9-0.3-1.3
		c0-0.5,0.1-0.9,0.3-1.4c0.2-0.4,0.4-0.8,0.8-1.1c0.3-0.3,0.7-0.6,1.1-0.8c0.4-0.2,0.9-0.3,1.3-0.3c0.5,0,0.9,0.1,1.3,0.3
		c0.4,0.2,0.8,0.4,1.1,0.8c0.3,0.3,0.6,0.7,0.8,1.1C311.8,17.6,311.9,18,311.9,18.5z M310.8,27.2v27.9h-4.9V27.2H310.8z"/>
	<path fill="#3C3C3C" d="M319.5,55.1V27.2h2.9c0.7,0,1.1,0.3,1.3,1l0.4,2.9c1-1.3,2.2-2.3,3.5-3.1s2.8-1.2,4.4-1.2
		c1.9,0,3.4,0.5,4.6,1.6s2,2.5,2.5,4.2c0.4-1,0.9-1.9,1.5-2.6c0.6-0.7,1.3-1.3,2.1-1.8s1.6-0.8,2.5-1c0.9-0.2,1.8-0.3,2.7-0.3
		c1.5,0,2.8,0.2,3.9,0.7c1.1,0.5,2.1,1.2,2.9,2c0.8,0.9,1.4,2,1.8,3.3s0.6,2.8,0.6,4.5v17.7h-4.9V37.3c0-2.2-0.5-3.8-1.4-5
		c-1-1.1-2.3-1.7-4.2-1.7c-0.8,0-1.6,0.1-2.3,0.4c-0.7,0.3-1.4,0.7-1.9,1.3c-0.5,0.5-1,1.2-1.3,2.1c-0.3,0.8-0.5,1.8-0.5,2.9v17.7
		h-4.9V37.3c0-2.2-0.4-3.9-1.3-5c-0.9-1.1-2.2-1.7-3.9-1.7c-1.2,0-2.3,0.3-3.4,1c-1,0.7-2,1.5-2.8,2.7v20.8H319.5z"/>
	<path fill="#3C3C3C" d="M375.6,26.8c1.7,0,3.2,0.3,4.6,0.8c1.4,0.6,2.6,1.4,3.7,2.4c1,1.1,1.8,2.4,2.4,3.9c0.6,1.5,0.9,3.3,0.9,5.3
		c0,0.8-0.1,1.3-0.2,1.5c-0.2,0.3-0.5,0.4-0.9,0.4h-18.5c0,1.8,0.3,3.3,0.7,4.6c0.4,1.3,1,2.4,1.8,3.3c0.8,0.9,1.7,1.5,2.8,2
		c1.1,0.4,2.3,0.6,3.6,0.6c1.2,0,2.3-0.1,3.2-0.4s1.7-0.6,2.3-0.9c0.6-0.3,1.2-0.6,1.6-0.9s0.8-0.4,1.1-0.4c0.4,0,0.7,0.2,0.9,0.5
		l1.4,1.8c-0.6,0.7-1.3,1.4-2.2,1.9c-0.8,0.5-1.7,1-2.7,1.3c-1,0.3-2,0.6-3,0.8s-2,0.3-3.1,0.3c-1.9,0-3.7-0.3-5.3-1
		c-1.6-0.7-3-1.6-4.2-2.9s-2.1-2.8-2.8-4.7s-1-4-1-6.4c0-1.9,0.3-3.8,0.9-5.4c0.6-1.7,1.5-3.1,2.6-4.4s2.5-2.2,4.1-2.9
		S373.6,26.8,375.6,26.8z M375.7,30.4c-2.4,0-4.2,0.7-5.6,2c-1.4,1.4-2.2,3.3-2.5,5.7h15.2c0-1.1-0.2-2.2-0.5-3.1
		c-0.3-0.9-0.8-1.8-1.4-2.4c-0.6-0.7-1.3-1.2-2.2-1.6C377.9,30.6,376.9,30.4,375.7,30.4z"/>
	<path fill="#3C3C3C" d="M393.4,55.1V27.2h2.9c0.7,0,1.1,0.3,1.3,1l0.4,3c1.2-1.3,2.6-2.4,4.1-3.2s3.2-1.2,5.2-1.2
		c1.5,0,2.9,0.3,4,0.8c1.2,0.5,2.1,1.2,2.9,2.1c0.8,0.9,1.4,2,1.8,3.3s0.6,2.7,0.6,4.3v17.7h-4.9V37.3c0-2.1-0.5-3.7-1.4-4.9
		c-1-1.2-2.4-1.7-4.4-1.7c-1.4,0-2.8,0.3-4.1,1c-1.3,0.7-2.4,1.6-3.5,2.8v20.5H393.4z"/>
	<path fill="#3C3C3C" d="M432.4,55.5c-2.2,0-3.9-0.6-5.1-1.8c-1.2-1.2-1.8-3-1.8-5.3v-17h-3.4c-0.3,0-0.5-0.1-0.7-0.3
		c-0.2-0.2-0.3-0.4-0.3-0.8v-2l4.6-0.6l1.1-8.6c0-0.3,0.2-0.5,0.4-0.7c0.2-0.2,0.5-0.3,0.8-0.3h2.5v9.6h8v3.5h-8V48
		c0,1.2,0.3,2,0.9,2.6c0.6,0.6,1.3,0.9,2.2,0.9c0.5,0,1-0.1,1.3-0.2c0.4-0.1,0.7-0.3,1-0.5c0.3-0.2,0.5-0.3,0.7-0.5s0.4-0.2,0.5-0.2
		c0.3,0,0.5,0.2,0.7,0.5l1.4,2.3c-0.8,0.8-1.9,1.4-3.1,1.9S433.7,55.5,432.4,55.5z"/>
	<path fill="#3C3C3C" d="M455.8,26.8c2,0,3.9,0.3,5.5,1c1.6,0.7,3,1.6,4.2,2.9c1.1,1.2,2,2.8,2.6,4.5s0.9,3.7,0.9,5.9
		c0,2.2-0.3,4.2-0.9,5.9c-0.6,1.8-1.5,3.3-2.6,4.5s-2.5,2.2-4.2,2.9c-1.6,0.7-3.5,1-5.5,1s-3.9-0.3-5.5-1c-1.6-0.7-3-1.6-4.2-2.9
		c-1.2-1.2-2-2.8-2.7-4.5c-0.6-1.8-0.9-3.7-0.9-5.9c0-2.2,0.3-4.2,0.9-5.9c0.6-1.8,1.5-3.3,2.7-4.5c1.2-1.2,2.6-2.2,4.2-2.9
		C451.9,27.1,453.8,26.8,455.8,26.8z M455.8,51.6c2.8,0,4.8-0.9,6.2-2.8c1.4-1.8,2-4.4,2-7.7c0-3.3-0.7-5.9-2-7.8
		c-1.4-1.9-3.4-2.8-6.2-2.8c-1.4,0-2.6,0.2-3.6,0.7c-1,0.5-1.9,1.2-2.6,2.1c-0.7,0.9-1.2,2-1.5,3.3c-0.3,1.3-0.5,2.8-0.5,4.4
		c0,1.7,0.2,3.1,0.5,4.4c0.3,1.3,0.9,2.4,1.5,3.3c0.7,0.9,1.5,1.6,2.6,2C453.2,51.4,454.4,51.6,455.8,51.6z"/>
	<path fill="#010002" d="M474.6,31.4c0-0.5,0.1-0.9,0.3-1.3c0.2-0.4,0.4-0.8,0.7-1.1c0.3-0.3,0.7-0.6,1.1-0.7
		c0.4-0.2,0.9-0.3,1.3-0.3s0.9,0.1,1.3,0.3c0.4,0.2,0.8,0.4,1.1,0.7c0.3,0.3,0.6,0.7,0.7,1.1c0.2,0.4,0.3,0.9,0.3,1.3
		c0,0.5-0.1,0.9-0.3,1.4c-0.2,0.4-0.4,0.8-0.7,1.1c-0.3,0.3-0.7,0.6-1.1,0.7c-0.4,0.2-0.9,0.3-1.3,0.3s-0.9-0.1-1.3-0.3
		c-0.4-0.2-0.8-0.4-1.1-0.7s-0.5-0.7-0.7-1.1C474.7,32.4,474.6,31.9,474.6,31.4z M474.8,51.7c0-0.4,0.1-0.8,0.2-1.2
		c0.2-0.4,0.4-0.7,0.7-1c0.3-0.3,0.6-0.5,1-0.7c0.4-0.2,0.8-0.2,1.3-0.2c0.6,0,1,0.1,1.5,0.3c0.4,0.2,0.8,0.5,1.1,0.8
		s0.5,0.8,0.6,1.2c0.1,0.5,0.2,1,0.2,1.5c0,0.8-0.1,1.7-0.4,2.6c-0.2,0.9-0.6,1.8-1,2.6c-0.4,0.9-1,1.7-1.6,2.5
		c-0.7,0.8-1.4,1.6-2.2,2.3l-0.8-0.8c-0.2-0.2-0.4-0.5-0.4-0.8c0-0.2,0.1-0.5,0.4-0.7c0.2-0.2,0.4-0.5,0.7-0.8
		c0.3-0.3,0.6-0.7,0.9-1.2c0.3-0.4,0.6-0.9,0.8-1.5c0.2-0.5,0.4-1.1,0.5-1.7H478c-0.5,0-0.9-0.1-1.3-0.2c-0.4-0.2-0.7-0.4-1-0.7
		c-0.3-0.3-0.5-0.7-0.7-1.1C474.8,52.7,474.8,52.2,474.8,51.7z"/>
</g>
</svg>
